<?xml version="1.0" encoding="UTF-8"?>
<svg xmlns="http://www.w3.org/2000/svg" xmlns:xlink="http://www.w3.org/1999/xlink" width="30pt" height="30.000001pt" viewBox="0 0 30 30.000001" version="1.2">
<defs>
<clipPath id="clip1">
  <path d="M 0.484375 3.972656 L 29.515625 3.972656 L 29.515625 25 L 0.484375 25 Z M 0.484375 3.972656 "/>
</clipPath>
</defs>
<g id="surface1">
<g clip-path="url(#clip1)" clip-rule="nonzero">
<path style=" stroke:none;fill-rule:nonzero;fill:rgb(100%,100%,100%);fill-opacity:1;" d="M 25.285156 6.261719 C 22.824219 4.285156 18.925781 3.949219 18.761719 3.9375 C 18.5 3.914062 18.253906 4.0625 18.148438 4.300781 C 18.140625 4.316406 18.054688 4.507812 17.960938 4.8125 C 19.589844 5.085938 21.589844 5.640625 23.402344 6.761719 C 23.691406 6.941406 23.78125 7.320312 23.601562 7.613281 C 23.484375 7.800781 23.28125 7.90625 23.074219 7.90625 C 22.960938 7.90625 22.851562 7.875 22.746094 7.8125 C 19.636719 5.886719 15.746094 5.789062 15 5.789062 C 14.253906 5.789062 10.363281 5.886719 7.253906 7.8125 C 6.960938 7.992188 6.582031 7.902344 6.402344 7.613281 C 6.21875 7.320312 6.3125 6.941406 6.601562 6.761719 C 8.410156 5.640625 10.410156 5.085938 12.039062 4.8125 C 11.945312 4.507812 11.859375 4.316406 11.851562 4.300781 C 11.746094 4.0625 11.5 3.910156 11.238281 3.9375 C 11.074219 3.949219 7.179688 4.285156 4.683594 6.289062 C 3.378906 7.492188 0.773438 14.527344 0.773438 20.609375 C 0.773438 20.71875 0.800781 20.824219 0.855469 20.914062 C 2.652344 24.070312 7.558594 24.898438 8.679688 24.933594 C 8.6875 24.933594 8.691406 24.933594 8.699219 24.933594 C 8.894531 24.933594 9.082031 24.839844 9.199219 24.679688 L 10.332031 23.125 C 7.28125 22.339844 5.722656 21.003906 5.628906 20.921875 C 5.375 20.699219 5.351562 20.308594 5.578125 20.050781 C 5.800781 19.796875 6.191406 19.773438 6.449219 19.996094 C 6.484375 20.03125 9.355469 22.460938 15 22.460938 C 20.65625 22.460938 23.523438 20.019531 23.554688 19.996094 C 23.808594 19.773438 24.199219 19.796875 24.425781 20.054688 C 24.648438 20.308594 24.625 20.699219 24.371094 20.921875 C 24.28125 21.003906 22.722656 22.335938 19.671875 23.125 L 20.800781 24.675781 C 20.917969 24.835938 21.105469 24.933594 21.304688 24.933594 C 21.308594 24.933594 21.316406 24.933594 21.320312 24.933594 C 22.441406 24.898438 27.347656 24.070312 29.148438 20.914062 C 29.199219 20.820312 29.226562 20.71875 29.226562 20.609375 C 29.226562 14.527344 26.621094 7.492188 25.285156 6.261719 Z M 10.980469 18.140625 C 9.785156 18.140625 8.8125 17.03125 8.8125 15.667969 C 8.8125 14.304688 9.78125 13.199219 10.980469 13.199219 C 12.175781 13.199219 13.144531 14.304688 13.144531 15.667969 C 13.144531 17.03125 12.175781 18.140625 10.980469 18.140625 Z M 19.019531 18.140625 C 17.824219 18.140625 16.855469 17.03125 16.855469 15.667969 C 16.855469 14.304688 17.824219 13.199219 19.019531 13.199219 C 20.214844 13.199219 21.1875 14.304688 21.1875 15.667969 C 21.1875 17.03125 20.214844 18.140625 19.019531 18.140625 Z M 19.019531 18.140625 "/>
</g>
</g>
</svg>
