<svg width="28" height="22" viewBox="0 0 28 22" fill="none" xmlns="http://www.w3.org/2000/svg">
<path d="M24.12 2.94595C21.696 0.997952 17.863 0.667952 17.701 0.653952C17.445 0.631952 17.202 0.776952 17.097 1.01095C17.093 1.01895 16.879 1.63995 16.672 2.23895C19.489 2.73195 21.403 3.82595 21.505 3.88595C21.983 4.16395 22.143 4.77695 21.864 5.25395C21.679 5.57195 21.344 5.74995 21 5.74995C20.829 5.74995 20.657 5.70695 20.499 5.61495C20.471 5.59795 17.663 3.99995 14.002 3.99995C10.34 3.99995 7.531 5.59895 7.503 5.61495C7.026 5.89195 6.414 5.72895 6.137 5.25095C5.86 4.77495 6.021 4.16395 6.497 3.88595C6.599 3.82595 8.52 2.72795 11.345 2.23595C11.127 1.62995 10.907 1.01895 10.903 1.01095C10.798 0.775952 10.555 0.627952 10.299 0.653952C10.137 0.666952 6.304 0.996952 3.848 2.97195C2.564 4.15795 0 11.092 0 17.087C0 17.193 0.027 17.296 0.08 17.388C1.851 20.498 6.679 21.312 7.779 21.347C7.786 21.348 7.792 21.348 7.798 21.348C7.992 21.348 8.175 21.255 8.29 21.098L9.48 19.486C6.87 18.857 5.49 17.868 5.407 17.807C4.963 17.48 4.867 16.854 5.194 16.409C5.52 15.966 6.144 15.868 6.588 16.193C6.625 16.217 9.172 18 14 18C18.847 18 21.387 16.21 21.412 16.192C21.856 15.87 22.482 15.967 22.807 16.413C23.131 16.857 23.037 17.479 22.595 17.805C22.512 17.866 21.139 18.853 18.535 19.482L19.71 21.097C19.825 21.255 20.008 21.347 20.202 21.347C20.209 21.347 20.215 21.347 20.221 21.346C21.322 21.311 26.15 20.497 27.92 17.387C27.973 17.295 28 17.192 28 17.086C28 11.092 25.436 4.15795 24.12 2.94595ZM10 15C8.895 15 8 13.881 8 12.5C8 11.119 8.895 9.99995 10 9.99995C11.105 9.99995 12 11.119 12 12.5C12 13.881 11.105 15 10 15ZM18 15C16.895 15 16 13.881 16 12.5C16 11.119 16.895 9.99995 18 9.99995C19.105 9.99995 20 11.119 20 12.5C20 13.881 19.105 15 18 15Z" fill="#232333"/>
</svg>

