<?xml version="1.0" encoding="UTF-8" standalone="no"?>
<svg
   xmlns:dc="http://purl.org/dc/elements/1.1/"
   xmlns:cc="http://creativecommons.org/ns#"
   xmlns:rdf="http://www.w3.org/1999/02/22-rdf-syntax-ns#"
   xmlns:svg="http://www.w3.org/2000/svg"
   xmlns="http://www.w3.org/2000/svg"
   xmlns:sodipodi="http://sodipodi.sourceforge.net/DTD/sodipodi-0.dtd"
   xmlns:inkscape="http://www.inkscape.org/namespaces/inkscape"
   enable-background="new 0 0 512 512"
   id="Layer_1"
   version="1.1"
   viewBox="0 0 512 512"
   xml:space="preserve"
   sodipodi:docname="discord-dk.svg"
   inkscape:version="1.0.2 (e86c8708, 2021-01-15)"><metadata
     id="metadata890"><rdf:RDF><cc:Work
         rdf:about=""><dc:format>image/svg+xml</dc:format><dc:type
           rdf:resource="http://purl.org/dc/dcmitype/StillImage" /><dc:title></dc:title></cc:Work></rdf:RDF></metadata><defs
     id="defs888" /><sodipodi:namedview
     pagecolor="#ffffff"
     bordercolor="#666666"
     borderopacity="1"
     objecttolerance="10"
     gridtolerance="10"
     guidetolerance="10"
     inkscape:pageopacity="0"
     inkscape:pageshadow="2"
     inkscape:window-width="1920"
     inkscape:window-height="957"
     id="namedview886"
     showgrid="false"
     inkscape:zoom="1.4355469"
     inkscape:cx="256"
     inkscape:cy="256"
     inkscape:window-x="1920"
     inkscape:window-y="25"
     inkscape:window-maximized="1"
     inkscape:current-layer="Layer_1" /><circle
     cx="256"
     cy="256"
     fill="#8C9EFF"
     id="ellipse"
     r="256"
     style="fill:#393c41;fill-opacity:1" /><path
     d="M372.4,168.7c0,0-33.3-26.1-72.7-29.1l-3.5,7.1c35.6,8.7,51.9,21.2,69,36.5  c-29.4-15-58.5-29.1-109.1-29.1s-79.7,14.1-109.1,29.1c17.1-15.3,36.5-29.2,69-36.5l-3.5-7.1c-41.3,3.9-72.7,29.1-72.7,29.1  s-37.2,54-43.6,160c37.5,43.3,94.5,43.6,94.5,43.6l11.9-15.9c-20.2-7-43.1-19.6-62.8-42.3c23.5,17.8,59.1,36.4,116.4,36.4  s92.8-18.5,116.4-36.4c-19.7,22.7-42.6,35.3-62.8,42.3l11.9,15.9c0,0,57-0.3,94.5-43.6C409.6,222.7,372.4,168.7,372.4,168.7z   M208.7,299.6c-14.1,0-25.5-13-25.5-29.1s11.4-29.1,25.5-29.1c14.1,0,25.5,13,25.5,29.1S222.8,299.6,208.7,299.6z M303.3,299.6  c-14.1,0-25.5-13-25.5-29.1s11.4-29.1,25.5-29.1s25.5,13,25.5,29.1S317.3,299.6,303.3,299.6z"
     fill="#FFFFFF"
     id="logo" /></svg>
