<?xml version="1.0" encoding="UTF-8"?>
<svg xmlns="http://www.w3.org/2000/svg" xmlns:xlink="http://www.w3.org/1999/xlink" width="30pt" height="30.000001pt" viewBox="0 0 30 30.000001" version="1.2">
<defs>
<clipPath id="clip1">
  <path d="M 0.484375 3.484375 L 29.515625 3.484375 L 29.515625 25.257812 L 0.484375 25.257812 Z M 0.484375 3.484375 "/>
</clipPath>
</defs>
<g id="surface1">
<g clip-path="url(#clip1)" clip-rule="nonzero">
<path style=" stroke:none;fill-rule:nonzero;fill:rgb(100%,100%,100%);fill-opacity:1;" d="M 16.007812 14.253906 C 15.433594 14.753906 14.566406 14.753906 13.992188 14.253906 L 4.121094 5.613281 L 25.878906 5.613281 Z M 19.859375 15.058594 L 18.390625 16.609375 L 25.4375 23.136719 L 4.480469 23.136719 L 11.171875 16.582031 L 9.660156 15.074219 L 2.632812 21.957031 L 2.632812 7.144531 L 12.566406 15.839844 C 13.238281 16.425781 14.101562 16.75 15 16.75 C 15.898438 16.75 16.761719 16.425781 17.433594 15.839844 L 27.367188 7.144531 L 27.367188 22.011719 Z M 26.308594 3.488281 L 3.695312 3.488281 C 1.925781 3.488281 0.484375 4.910156 0.484375 6.65625 L 0.484375 22.089844 C 0.484375 23.835938 1.925781 25.257812 3.695312 25.257812 L 26.308594 25.257812 C 28.078125 25.257812 29.515625 23.835938 29.515625 22.089844 L 29.515625 6.65625 C 29.515625 4.910156 28.078125 3.488281 26.308594 3.488281 "/>
</g>
</g>
</svg>
