<?xml version="1.0" encoding="UTF-8" standalone="no"?>
<svg
   xmlns:dc="http://purl.org/dc/elements/1.1/"
   xmlns:cc="http://creativecommons.org/ns#"
   xmlns:rdf="http://www.w3.org/1999/02/22-rdf-syntax-ns#"
   xmlns:svg="http://www.w3.org/2000/svg"
   xmlns="http://www.w3.org/2000/svg"
   xmlns:sodipodi="http://sodipodi.sourceforge.net/DTD/sodipodi-0.dtd"
   xmlns:inkscape="http://www.inkscape.org/namespaces/inkscape"
   enable-background="new 0 0 128 128"
   height="128px"
   id="Layer_1"
   version="1.1"
   viewBox="0 0 128 128"
   width="128px"
   xml:space="preserve"
   sodipodi:docname="IG-dk.svg"
   inkscape:version="1.0.2 (e86c8708, 2021-01-15)"><metadata
     id="metadata920"><rdf:RDF><cc:Work
         rdf:about=""><dc:format>image/svg+xml</dc:format><dc:type
           rdf:resource="http://purl.org/dc/dcmitype/StillImage" /><dc:title></dc:title></cc:Work></rdf:RDF></metadata><defs
     id="defs918" /><sodipodi:namedview
     pagecolor="#ffffff"
     bordercolor="#666666"
     borderopacity="1"
     objecttolerance="10"
     gridtolerance="10"
     guidetolerance="10"
     inkscape:pageopacity="0"
     inkscape:pageshadow="2"
     inkscape:window-width="1920"
     inkscape:window-height="956"
     id="namedview916"
     showgrid="false"
     inkscape:zoom="5.7421875"
     inkscape:cx="64"
     inkscape:cy="64"
     inkscape:window-x="1920"
     inkscape:window-y="25"
     inkscape:window-maximized="1"
     inkscape:current-layer="Layer_1" /><g
     id="g899"
     style="fill:#393c41;fill-opacity:1"><linearGradient
       gradientTransform="matrix(1 0 0 -1 594 633)"
       gradientUnits="userSpaceOnUse"
       id="SVGID_1_"
       x1="-566.7114"
       x2="-493.2875"
       y1="516.5693"
       y2="621.4296"><stop
         offset="0"
         style="stop-color:#FFB900"
         id="stop892" /><stop
         offset="1"
         style="stop-color:#9100EB"
         id="stop894" /></linearGradient><circle
       cx="64"
       cy="64"
       fill="url(#SVGID_1_)"
       r="64"
       id="circle897"
       style="fill:#393c41;fill-opacity:1" /></g><g
     id="g913"><g
       id="g903"><path
         d="M82.333,104H45.667C33.72,104,24,94.281,24,82.333V45.667C24,33.719,33.72,24,45.667,24h36.666    C94.281,24,104,33.719,104,45.667v36.667C104,94.281,94.281,104,82.333,104z M45.667,30.667c-8.271,0-15,6.729-15,15v36.667    c0,8.271,6.729,15,15,15h36.666c8.271,0,15-6.729,15-15V45.667c0-8.271-6.729-15-15-15H45.667z"
         fill="#FFFFFF"
         id="path901" /></g><g
       id="g907"><path
         d="M64,84c-11.028,0-20-8.973-20-20c0-11.029,8.972-20,20-20s20,8.971,20,20C84,75.027,75.028,84,64,84z     M64,50.667c-7.352,0-13.333,5.981-13.333,13.333c0,7.353,5.981,13.333,13.333,13.333S77.333,71.353,77.333,64    C77.333,56.648,71.353,50.667,64,50.667z"
         fill="#FFFFFF"
         id="path905" /></g><g
       id="g911"><circle
         cx="85.25"
         cy="42.75"
         fill="#FFFFFF"
         r="4.583"
         id="circle909" /></g></g></svg>
