<?xml version="1.0" encoding="UTF-8" standalone="no"?>
<svg
   xmlns:dc="http://purl.org/dc/elements/1.1/"
   xmlns:cc="http://creativecommons.org/ns#"
   xmlns:rdf="http://www.w3.org/1999/02/22-rdf-syntax-ns#"
   xmlns:svg="http://www.w3.org/2000/svg"
   xmlns="http://www.w3.org/2000/svg"
   xmlns:sodipodi="http://sodipodi.sourceforge.net/DTD/sodipodi-0.dtd"
   xmlns:inkscape="http://www.inkscape.org/namespaces/inkscape"
   enable-background="new 0 0 128 128"
   height="128px"
   id="Layer_1"
   version="1.1"
   viewBox="0 0 128 128"
   width="128px"
   xml:space="preserve"
   sodipodi:docname="pinterest-dk.svg"
   inkscape:version="1.0.2 (e86c8708, 2021-01-15)"><metadata
     id="metadata933"><rdf:RDF><cc:Work
         rdf:about=""><dc:format>image/svg+xml</dc:format><dc:type
           rdf:resource="http://purl.org/dc/dcmitype/StillImage" /><dc:title></dc:title></cc:Work></rdf:RDF></metadata><defs
     id="defs931" /><sodipodi:namedview
     pagecolor="#ffffff"
     bordercolor="#666666"
     borderopacity="1"
     objecttolerance="10"
     gridtolerance="10"
     guidetolerance="10"
     inkscape:pageopacity="0"
     inkscape:pageshadow="2"
     inkscape:window-width="1920"
     inkscape:window-height="954"
     id="namedview929"
     showgrid="false"
     inkscape:zoom="5.7421875"
     inkscape:cx="64"
     inkscape:cy="64"
     inkscape:window-x="1920"
     inkscape:window-y="25"
     inkscape:window-maximized="1"
     inkscape:current-layer="Layer_1" /><circle
     cx="64"
     cy="64"
     fill="#BD2026"
     r="64"
     id="circle922"
     style="fill:#393c41;fill-opacity:1" /><g
     id="g926"><path
       d="M53.014,108.312c0.779-2.988,3.988-15.199,3.988-15.199c2.084,3.973,8.17,7.346,14.659,7.346   c19.28,0,33.175-17.744,33.175-39.773c0-21.131-17.239-36.936-39.419-36.936c-27.593,0-42.253,18.526-42.253,38.693   c0,9.377,4.994,21.058,12.978,24.775c1.215,0.561,1.861,0.316,2.14-0.855c0.211-0.891,1.294-5.235,1.775-7.253   c0.159-0.648,0.081-1.197-0.441-1.835c-2.64-3.202-4.757-9.095-4.757-14.59c0-14.105,10.677-27.755,28.874-27.755   c15.713,0,26.712,10.707,26.712,26.017c0,17.3-8.738,29.281-20.108,29.281c-6.273,0-10.971-5.188-9.467-11.547   c1.804-7.605,5.295-15.813,5.295-21.292c0-4.916-2.633-9.009-8.086-9.009c-6.42,0-11.575,6.63-11.575,15.533   c0,5.658,1.915,9.489,1.915,9.489s-6.336,26.792-7.496,31.784c-1.288,5.523-0.744,14.363-0.226,18.343   c0.003,0.027,0.007,0.054,0.011,0.081c1.418,0.555,2.854,1.076,4.32,1.53c0.014-0.021,0.027-0.042,0.041-0.062   C46.788,122.438,51.571,113.872,53.014,108.312z"
       fill="#FFFFFF"
       id="path924" /></g></svg>
