<?xml version="1.0" ?><!DOCTYPE svg  PUBLIC '-//W3C//DTD SVG 1.1//EN'  'http://www.w3.org/Graphics/SVG/1.1/DTD/svg11.dtd'><svg enable-background="new 0 0 128 128" height="128px" id="Layer_1" version="1.1" viewBox="0 0 128 128" width="128px" xml:space="preserve" xmlns="http://www.w3.org/2000/svg" xmlns:xlink="http://www.w3.org/1999/xlink"><circle cx="64" cy="64" fill="#BD2026" r="64"/><g><path d="M53.014,108.312c0.779-2.988,3.988-15.199,3.988-15.199c2.084,3.973,8.17,7.346,14.659,7.346   c19.28,0,33.175-17.744,33.175-39.773c0-21.131-17.239-36.936-39.419-36.936c-27.593,0-42.253,18.526-42.253,38.693   c0,9.377,4.994,21.058,12.978,24.775c1.215,0.561,1.861,0.316,2.14-0.855c0.211-0.891,1.294-5.235,1.775-7.253   c0.159-0.648,0.081-1.197-0.441-1.835c-2.64-3.202-4.757-9.095-4.757-14.59c0-14.105,10.677-27.755,28.874-27.755   c15.713,0,26.712,10.707,26.712,26.017c0,17.3-8.738,29.281-20.108,29.281c-6.273,0-10.971-5.188-9.467-11.547   c1.804-7.605,5.295-15.813,5.295-21.292c0-4.916-2.633-9.009-8.086-9.009c-6.42,0-11.575,6.63-11.575,15.533   c0,5.658,1.915,9.489,1.915,9.489s-6.336,26.792-7.496,31.784c-1.288,5.523-0.744,14.363-0.226,18.343   c0.003,0.027,0.007,0.054,0.011,0.081c1.418,0.555,2.854,1.076,4.32,1.53c0.014-0.021,0.027-0.042,0.041-0.062   C46.788,122.438,51.571,113.872,53.014,108.312z" fill="#FFFFFF"/></g></svg>