<?xml version="1.0" encoding="UTF-8"?>
<svg xmlns="http://www.w3.org/2000/svg" xmlns:xlink="http://www.w3.org/1999/xlink" width="30" height="30" viewBox="0 0 30 30.000001" version="1.2">
<defs>
<clipPath id="clip1">
  <path d="M 0.484375 0.90625 L 29.515625 0.90625 L 29.515625 28.488281 L 0.484375 28.488281 Z M 0.484375 0.90625 "/>
</clipPath>
</defs>
<g id="surface1">
<g clip-path="url(#clip1)" clip-rule="nonzero">
<path style=" stroke:none;fill-rule:nonzero;fill:rgb(100%,100%,100%);fill-opacity:1;" d="M 2.3125 17.742188 C 2.238281 18.15625 2.1875 18.574219 2.1875 19.003906 C 2.1875 24.230469 8.023438 28.484375 15.058594 28.484375 C 22.089844 28.484375 27.8125 24.230469 27.8125 19.003906 C 27.8125 18.574219 27.761719 18.15625 27.6875 17.742188 C 28.789062 17.160156 29.515625 16.007812 29.515625 14.695312 C 29.515625 12.796875 27.988281 11.25 26.113281 11.25 C 25.253906 11.25 24.449219 11.574219 23.832031 12.140625 C 21.695312 10.632812 18.859375 9.671875 15.722656 9.550781 L 17.351562 3.152344 L 21.019531 4.453125 C 21.074219 6.308594 22.570312 7.800781 24.410156 7.800781 C 26.289062 7.800781 27.8125 6.253906 27.8125 4.355469 C 27.8125 2.453125 26.289062 0.90625 24.410156 0.90625 C 23.105469 0.90625 21.980469 1.667969 21.410156 2.765625 L 16.164062 0.90625 L 13.960938 9.566406 C 10.996094 9.753906 8.207031 10.699219 6.167969 12.140625 C 5.550781 11.574219 4.746094 11.25 3.886719 11.25 C 2.011719 11.25 0.484375 12.796875 0.484375 14.695312 C 0.484375 16.007812 1.210938 17.160156 2.3125 17.742188 Z M 20.160156 14.695312 C 21.566406 14.695312 22.710938 15.855469 22.710938 17.28125 C 22.710938 18.707031 21.566406 19.867188 20.160156 19.867188 C 18.753906 19.867188 17.609375 18.707031 17.609375 17.28125 C 17.609375 15.855469 18.753906 14.695312 20.160156 14.695312 Z M 19.796875 22.308594 L 20.523438 23.867188 C 18.925781 24.632812 17.035156 25.039062 15.058594 25.039062 C 13.078125 25.039062 11.074219 24.632812 9.476562 23.867188 L 10.203125 22.308594 C 12.945312 23.625 17.054688 23.625 19.796875 22.308594 Z M 9.839844 14.695312 C 11.246094 14.695312 12.390625 15.855469 12.390625 17.28125 C 12.390625 18.707031 11.246094 19.867188 9.839844 19.867188 C 8.433594 19.867188 7.289062 18.707031 7.289062 17.28125 C 7.289062 15.855469 8.433594 14.695312 9.839844 14.695312 "/>
</g>
</g>
</svg>
