<svg width="30" height="30" viewBox="0 0 30 30" fill="none" xmlns="http://www.w3.org/2000/svg">
<path d="M17.6621 2C15.565 2 14 3.71314 14 5.66211V9.03516C11.2497 9.18109 8.73448 9.91436 6.72656 11.0645C5.95278 10.3214 4.91668 9.99145 3.91211 9.99219C2.82292 9.99299 1.70945 10.3704 0.941403 11.2344L0.923825 11.2539L0.906246 11.2734C0.169476 12.1942 -0.12226 13.4277 0.0742153 14.6523C0.253647 15.7707 0.901368 16.8934 2.02734 17.6289C2.01996 17.7531 2 17.8746 2 18C2 22.962 7.832 27 15 27C22.168 27 28 22.962 28 18C28 17.8746 27.98 17.7531 27.9726 17.6289C29.0986 16.8934 29.7463 15.7707 29.9258 14.6523C30.1222 13.4277 29.8305 12.1942 29.0937 11.2734L29.0762 11.2539L29.0586 11.2344C28.2904 10.3703 27.1772 9.99299 26.0879 9.99219C25.0832 9.99145 24.047 10.3211 23.2734 11.0645C21.2655 9.91436 18.7503 9.18109 16 9.03516V5.66211C16 4.68308 16.5652 4 17.6621 4C18.1828 4 18.8171 4.2609 19.8105 4.60937C20.6504 4.90396 21.7433 5.2017 23.1406 5.29102C23.4749 6.27909 24.4028 7 25.5 7C26.875 7 28 5.875 28 4.5C28 3.125 26.875 2 25.5 2C24.5612 2 23.7475 2.53042 23.3203 3.30078C22.1258 3.23463 21.2482 2.99471 20.4727 2.72266C19.5688 2.40563 18.7384 2 17.6621 2ZM3.91211 11.9922C4.30725 11.9919 4.68267 12.0956 4.99218 12.2637C3.88819 13.1852 3.05057 14.2618 2.54492 15.4375C2.27643 15.1061 2.11464 14.734 2.05078 14.3359C1.94301 13.6642 2.14402 12.966 2.46289 12.5527C2.76421 12.2284 3.31446 11.9926 3.91211 11.9922ZM26.0859 11.9922C26.6837 11.9926 27.2359 12.2285 27.5371 12.5527C27.856 12.966 28.057 13.6642 27.9492 14.3359C27.8853 14.734 27.7236 15.1061 27.4551 15.4375C26.9494 14.2618 26.1118 13.1852 25.0078 12.2637C25.3166 12.0958 25.6909 11.9919 26.0859 11.9922ZM10 14C11.105 14 12 14.895 12 16C12 17.105 11.105 18 10 18C8.89499 18 8 17.105 8 16C8 14.895 8.89499 14 10 14ZM20 14C21.105 14 22 14.895 22 16C22 17.105 21.105 18 20 18C18.895 18 18 17.105 18 16C18 14.895 18.895 14 20 14ZM20.2383 19.5332C19.5993 21.4002 17.556 23 15 23C12.444 23 10.4007 21.401 9.76171 19.668C10.9117 20.601 12.828 21.2676 15 21.2676C17.172 21.2676 19.0883 20.6002 20.2383 19.5332Z" fill="#232333"/>
</svg>

