<svg width="26" height="22" viewBox="0 0 26 22" fill="none" xmlns="http://www.w3.org/2000/svg">
<path d="M26 2.93691C25.043 3.36191 24.015 3.64791 22.936 3.77691C24.038 3.11691 24.883 2.07191 25.281 0.825913C24.251 1.43691 23.109 1.88091 21.893 2.12091C20.92 1.08391 19.534 0.435913 18 0.435913C15.054 0.435913 12.666 2.82491 12.666 5.76991C12.666 6.18791 12.714 6.59591 12.804 6.98491C8.37099 6.76291 4.44099 4.63891 1.80899 1.41091C1.35099 2.19891 1.08799 3.11491 1.08799 4.09391C1.08799 5.94391 2.02899 7.57691 3.45999 8.53291C2.58599 8.50491 1.76299 8.26491 1.04399 7.86591C1.04399 7.88891 1.04399 7.90991 1.04399 7.93291C1.04399 10.5179 2.88199 12.6739 5.32299 13.1629C4.87599 13.2849 4.40399 13.3499 3.91699 13.3499C3.57399 13.3499 3.23899 13.3159 2.91399 13.2549C3.59299 15.3739 5.56299 16.9169 7.89699 16.9599C6.07199 18.3909 3.77199 19.2439 1.27199 19.2439C0.841993 19.2439 0.416993 19.2189 -0.00100708 19.1689C2.35999 20.6819 5.16299 21.5649 8.17599 21.5649C17.988 21.5649 23.352 13.4369 23.352 6.38791C23.352 6.15691 23.347 5.92691 23.337 5.69791C24.38 4.94491 25.285 4.00591 26 2.93691Z" fill="#232333"/>
</svg>

