<?xml version="1.0" encoding="UTF-8" standalone="no"?>
<svg
   xmlns:dc="http://purl.org/dc/elements/1.1/"
   xmlns:cc="http://creativecommons.org/ns#"
   xmlns:rdf="http://www.w3.org/1999/02/22-rdf-syntax-ns#"
   xmlns:svg="http://www.w3.org/2000/svg"
   xmlns="http://www.w3.org/2000/svg"
   xmlns:sodipodi="http://sodipodi.sourceforge.net/DTD/sodipodi-0.dtd"
   xmlns:inkscape="http://www.inkscape.org/namespaces/inkscape"
   enable-background="new 0 0 128 128"
   height="128px"
   id="Layer_1"
   version="1.1"
   viewBox="0 0 128 128"
   width="128px"
   xml:space="preserve"
   sodipodi:docname="twitter-dk.svg"
   inkscape:version="1.0.2 (e86c8708, 2021-01-15)"><metadata
     id="metadata881"><rdf:RDF><cc:Work
         rdf:about=""><dc:format>image/svg+xml</dc:format><dc:type
           rdf:resource="http://purl.org/dc/dcmitype/StillImage" /><dc:title></dc:title></cc:Work></rdf:RDF></metadata><defs
     id="defs879" /><sodipodi:namedview
     pagecolor="#ffffff"
     bordercolor="#666666"
     borderopacity="1"
     objecttolerance="10"
     gridtolerance="10"
     guidetolerance="10"
     inkscape:pageopacity="0"
     inkscape:pageshadow="2"
     inkscape:window-width="1920"
     inkscape:window-height="959"
     id="namedview877"
     showgrid="false"
     inkscape:zoom="5.7421875"
     inkscape:cx="64"
     inkscape:cy="64"
     inkscape:window-x="1920"
     inkscape:window-y="25"
     inkscape:window-maximized="1"
     inkscape:current-layer="Layer_1" /><g
     id="g870"
     style="fill:#393c41;fill-opacity:1"><circle
       cx="64"
       cy="64"
       fill="#55ACEE"
       r="64"
       id="circle868"
       style="fill:#393c41;fill-opacity:1" /></g><g
     id="g874"><path
       d="M105,40.189c-2.943,1.306-6.105,2.188-9.428,2.584c3.39-2.031,5.99-5.248,7.217-9.08   c-3.171,1.881-6.684,3.247-10.422,3.983c-2.994-3.19-7.26-5.184-11.979-5.184c-9.065,0-16.414,7.349-16.414,16.412   c0,1.287,0.146,2.539,0.426,3.741C50.758,51.96,38.665,45.426,30.57,35.497c-1.413,2.423-2.223,5.243-2.223,8.251   c0,5.694,2.898,10.718,7.302,13.661c-2.69-0.085-5.222-0.824-7.434-2.054c-0.002,0.069-0.002,0.138-0.002,0.207   c0,7.954,5.657,14.584,13.166,16.093c-1.378,0.375-2.827,0.575-4.324,0.575c-1.058,0-2.086-0.103-3.088-0.295   c2.089,6.521,8.15,11.268,15.332,11.399c-5.617,4.401-12.694,7.024-20.384,7.024c-1.325,0-2.632-0.076-3.915-0.229   c7.263,4.657,15.892,7.374,25.16,7.374c30.188,0,46.697-25.01,46.697-46.698c0-0.711-0.018-1.42-0.049-2.123   C100.018,46.371,102.799,43.48,105,40.189"
       fill="#FFFFFF"
       id="path872" /></g></svg>
