<?xml version="1.0" encoding="UTF-8"?>
<svg xmlns="http://www.w3.org/2000/svg" xmlns:xlink="http://www.w3.org/1999/xlink" width="30pt" height="30.000001pt" viewBox="0 0 30 30.000001" version="1.2">
<defs>
<clipPath id="clip1">
  <path d="M 0.484375 2 L 29.515625 2 L 29.515625 25.90625 L 0.484375 25.90625 Z M 0.484375 2 "/>
</clipPath>
</defs>
<g id="surface1">
<g clip-path="url(#clip1)" clip-rule="nonzero">
<path style=" stroke:none;fill-rule:nonzero;fill:rgb(100%,100%,100%);fill-opacity:1;" d="M 26.515625 8.390625 C 26.53125 8.644531 26.53125 8.894531 26.53125 9.152344 C 26.53125 16.929688 20.554688 25.902344 9.628906 25.902344 L 9.628906 25.898438 C 6.398438 25.902344 3.238281 24.988281 0.523438 23.257812 C 0.992188 23.316406 1.460938 23.34375 1.9375 23.34375 C 4.609375 23.347656 7.210938 22.457031 9.3125 20.820312 C 6.773438 20.769531 4.542969 19.128906 3.765625 16.730469 C 4.65625 16.898438 5.570312 16.867188 6.445312 16.628906 C 3.675781 16.074219 1.679688 13.660156 1.679688 10.855469 C 1.679688 10.832031 1.679688 10.808594 1.679688 10.78125 C 2.503906 11.238281 3.429688 11.492188 4.375 11.519531 C 1.765625 9.792969 0.960938 6.351562 2.539062 3.660156 C 5.554688 7.335938 10.003906 9.574219 14.78125 9.808594 C 14.300781 7.765625 14.957031 5.621094 16.5 4.183594 C 18.894531 1.953125 22.65625 2.070312 24.90625 4.441406 C 26.234375 4.179688 27.511719 3.695312 28.679688 3.011719 C 28.234375 4.375 27.308594 5.53125 26.066406 6.265625 C 27.246094 6.128906 28.394531 5.816406 29.480469 5.339844 C 28.679688 6.523438 27.675781 7.554688 26.515625 8.390625 Z M 26.515625 8.390625 "/>
</g>
</g>
</svg>
