<?xml version="1.0" encoding="UTF-8" standalone="no"?>
<svg
   xmlns:dc="http://purl.org/dc/elements/1.1/"
   xmlns:cc="http://creativecommons.org/ns#"
   xmlns:rdf="http://www.w3.org/1999/02/22-rdf-syntax-ns#"
   xmlns:svg="http://www.w3.org/2000/svg"
   xmlns="http://www.w3.org/2000/svg"
   xmlns:sodipodi="http://sodipodi.sourceforge.net/DTD/sodipodi-0.dtd"
   xmlns:inkscape="http://www.inkscape.org/namespaces/inkscape"
   enable-background="new 0 0 128 128"
   height="128px"
   id="Layer_1"
   version="1.1"
   viewBox="0 0 128 128"
   width="128px"
   xml:space="preserve"
   sodipodi:docname="youtube-dk.svg"
   inkscape:version="1.0.2 (e86c8708, 2021-01-15)"><metadata
     id="metadata844"><rdf:RDF><cc:Work
         rdf:about=""><dc:format>image/svg+xml</dc:format><dc:type
           rdf:resource="http://purl.org/dc/dcmitype/StillImage" /><dc:title></dc:title></cc:Work></rdf:RDF></metadata><defs
     id="defs842" /><sodipodi:namedview
     pagecolor="#ffffff"
     bordercolor="#666666"
     borderopacity="1"
     objecttolerance="10"
     gridtolerance="10"
     guidetolerance="10"
     inkscape:pageopacity="0"
     inkscape:pageshadow="2"
     inkscape:window-width="1920"
     inkscape:window-height="959"
     id="namedview840"
     showgrid="false"
     inkscape:zoom="5.5625"
     inkscape:cx="64"
     inkscape:cy="64"
     inkscape:window-x="1920"
     inkscape:window-y="25"
     inkscape:window-maximized="1"
     inkscape:current-layer="Layer_1" /><g
     id="g835"
     style="fill:#393c41;fill-opacity:1"><circle
       cx="64"
       cy="64"
       fill="#CC191E"
       r="64"
       id="circle833"
       style="fill:#393c41;fill-opacity:1" /></g><path
     d="M103.201,48.004c0,0-0.781-5.513-3.18-7.939c-3.043-3.187-6.453-3.203-8.016-3.389  c-11.191-0.81-27.988-0.81-27.988-0.81h-0.036c0,0-16.795,0-27.988,0.81c-1.564,0.186-4.972,0.201-8.015,3.389  c-2.399,2.426-3.18,7.939-3.18,7.939S24,54.478,24,60.953v6.071c0,6.471,0.799,12.947,0.799,12.947s0.781,5.51,3.18,7.938  c3.044,3.189,7.041,3.088,8.82,3.422c6.401,0.615,27.202,0.805,27.202,0.805s16.81-0.025,28.005-0.834  c1.564-0.188,4.975-0.203,8.016-3.391c2.4-2.43,3.182-7.939,3.182-7.939S104,73.496,104,67.023v-6.071  C104,54.478,103.201,48.004,103.201,48.004 M54.729,75.428l-0.003-24.581l23.637,12.332L54.729,75.428z"
     fill="#FFFFFF"
     id="path837" /></svg>
