<svg width="15" height="15" viewBox="0 0 15 15" fill="none" xmlns="http://www.w3.org/2000/svg">
<path d="M7.5 0.625L5 3.125H6.875V8.75H8.125V3.125H10L7.5 0.625ZM11.25 14.375H3.75C3.05625 14.375 2.5 13.8125 2.5 13.125V5.625C2.5 5.29348 2.6317 4.97554 2.86612 4.74112C3.10054 4.5067 3.41848 4.375 3.75 4.375H5.625V5.625H3.75V13.125H11.25V5.625H9.375V4.375H11.25C11.5815 4.375 11.8995 4.5067 12.1339 4.74112C12.3683 4.97554 12.5 5.29348 12.5 5.625V13.125C12.5 13.4565 12.3683 13.7745 12.1339 14.0089C11.8995 14.2433 11.5815 14.375 11.25 14.375Z" fill="url(#paint0_linear)"/>
<defs>
<linearGradient id="paint0_linear" x1="7.5" y1="0.625" x2="7.5" y2="14.375" gradientUnits="userSpaceOnUse">
<stop stop-color="#00BEB3"/>
<stop offset="1" stop-color="#5653FF"/>
</linearGradient>
</defs>
</svg>
