<svg width="15" height="15" viewBox="0 0 15 15" fill="none" xmlns="http://www.w3.org/2000/svg">
<path d="M11.25 5C11.5815 5 11.8995 5.1317 12.1339 5.36612C12.3683 5.60054 12.5 5.91848 12.5 6.25V12.5C12.5 12.8315 12.3683 13.1495 12.1339 13.3839C11.8995 13.6183 11.5815 13.75 11.25 13.75H3.75C3.05625 13.75 2.5 13.1875 2.5 12.5V6.25C2.5 5.91848 2.6317 5.60054 2.86612 5.36612C3.10054 5.1317 3.41848 5 3.75 5H9.375V3.75C9.375 3.25272 9.17746 2.77581 8.82583 2.42417C8.47419 2.07254 7.99728 1.875 7.5 1.875C7.00272 1.875 6.52581 2.07254 6.17417 2.42417C5.82254 2.77581 5.625 3.25272 5.625 3.75H4.375C4.375 2.9212 4.70424 2.12634 5.29029 1.54029C5.87634 0.95424 6.6712 0.625 7.5 0.625C7.91038 0.625 8.31674 0.705831 8.69589 0.862876C9.07503 1.01992 9.41953 1.25011 9.70971 1.54029C9.99989 1.83047 10.2301 2.17497 10.3871 2.55411C10.5442 2.93326 10.625 3.33962 10.625 3.75V5H11.25ZM7.5 10.625C7.83152 10.625 8.14946 10.4933 8.38388 10.2589C8.6183 10.0245 8.75 9.70652 8.75 9.375C8.75 9.04348 8.6183 8.72554 8.38388 8.49112C8.14946 8.2567 7.83152 8.125 7.5 8.125C7.16848 8.125 6.85054 8.2567 6.61612 8.49112C6.3817 8.72554 6.25 9.04348 6.25 9.375C6.25 9.70652 6.3817 10.0245 6.61612 10.2589C6.85054 10.4933 7.16848 10.625 7.5 10.625Z" fill="url(#paint0_linear)"/>
<defs>
<linearGradient id="paint0_linear" x1="7.5" y1="0.625" x2="7.5" y2="13.75" gradientUnits="userSpaceOnUse">
<stop stop-color="#00BEB3"/>
<stop offset="1" stop-color="#5653FF"/>
</linearGradient>
</defs>
</svg>
