<svg width="12" height="14" viewBox="0 0 12 14" fill="none" xmlns="http://www.w3.org/2000/svg">
<path d="M8.57143 8.63354H8.02286L7.81717 8.40994C8.50288 7.59006 8.91431 6.47205 8.91431 5.2795C8.91429 2.59627 6.92571 0.434784 4.45714 0.434784C1.98857 0.434784 0 2.59627 0 5.2795C0 7.96273 1.98857 10.1242 4.45714 10.1242C5.55429 10.1242 6.58286 9.67702 7.33714 8.93168L7.54286 9.15525V9.75152L10.9714 13.4783L12 12.3602L8.57143 8.63354ZM4.45714 8.63354C2.74286 8.63354 1.37143 7.14286 1.37143 5.2795C1.37143 3.41615 2.74286 1.92547 4.45714 1.92547C6.17143 1.92547 7.54286 3.41615 7.54286 5.2795C7.54286 7.14286 6.17143 8.63354 4.45714 8.63354Z" fill="white"/>
</svg>
