<?xml version="1.0" encoding="UTF-8"?>
<svg xmlns="http://www.w3.org/2000/svg" xmlns:xlink="http://www.w3.org/1999/xlink" width="375pt" height="374.999991pt" viewBox="0 0 375 374.999991" version="1.2">
<defs>
<clipPath id="clip1">
  <path d="M 12 18.75 L 363 18.75 L 363 356.25 L 12 356.25 Z M 12 18.75 "/>
</clipPath>
</defs>
<g id="surface1">
<g clip-path="url(#clip1)" clip-rule="nonzero">
<path style=" stroke:none;fill-rule:nonzero;fill:rgb(0,0,0);fill-opacity:1;" d="M 181.570312 18.75 C 88.53125 18.75 12.839844 94.453125 12.839844 187.5 C 12.839844 280.546875 88.53125 356.25 181.570312 356.25 C 274.609375 356.25 350.304688 280.546875 350.304688 187.5 C 350.304688 168.5 346.996094 150.277344 341.175781 133.214844 L 313.855469 160.539062 C 315.628906 169.246094 316.558594 178.269531 316.558594 187.5 C 316.558594 261.9375 256 322.5 181.570312 322.5 C 107.144531 322.5 46.585938 261.9375 46.585938 187.5 C 46.585938 113.0625 107.144531 52.5 181.570312 52.5 C 209.125 52.5 234.753906 60.835938 256.148438 75.078125 L 280.304688 50.917969 C 252.5 30.769531 218.4375 18.75 181.570312 18.75 Z M 338.375 40.570312 L 164.699219 214.261719 L 109.132812 158.695312 L 85.273438 182.554688 L 164.699219 261.988281 L 362.234375 64.429688 Z M 338.375 40.570312 "/>
</g>
</g>
</svg>
