<?xml version="1.0" encoding="UTF-8"?>
<svg xmlns="http://www.w3.org/2000/svg" xmlns:xlink="http://www.w3.org/1999/xlink" width="375pt" height="374.999991pt" viewBox="0 0 375 374.999991" version="1.2">
<g id="surface1">
<path style=" stroke:none;fill-rule:nonzero;fill:rgb(45.878601%,56.469727%,98.81897%);fill-opacity:1;" d="M 24.941406 123.617188 L 123.703125 24.851562 L 187.710938 88.859375 L 88.945312 187.625 Z M 24.941406 123.617188 "/>
<path style=" stroke:none;fill-rule:nonzero;fill:rgb(100%,8.628845%,8.628845%);fill-opacity:1;" d="M 71.125 0 C 69.960938 0 68.800781 0.0273438 67.636719 0.0859375 C 66.472656 0.144531 65.3125 0.226562 64.15625 0.34375 C 62.996094 0.457031 61.839844 0.597656 60.691406 0.769531 C 59.539062 0.941406 58.390625 1.140625 57.25 1.367188 C 56.109375 1.59375 54.972656 1.847656 53.84375 2.132812 C 52.714844 2.414062 51.59375 2.726562 50.480469 3.0625 C 49.367188 3.402344 48.261719 3.765625 47.164062 4.15625 C 46.070312 4.550781 44.984375 4.96875 43.90625 5.414062 C 42.832031 5.859375 41.769531 6.332031 40.714844 6.828125 C 39.664062 7.328125 38.625 7.851562 37.597656 8.398438 C 36.570312 8.945312 35.558594 9.519531 34.558594 10.121094 C 33.5625 10.71875 32.578125 11.339844 31.609375 11.988281 C 30.644531 12.632812 29.691406 13.304688 28.757812 13.996094 C 27.820312 14.691406 26.902344 15.40625 26.003906 16.144531 C 25.105469 16.882812 24.222656 17.644531 23.359375 18.425781 C 22.5 19.207031 21.65625 20.007812 20.832031 20.832031 C 20.007812 21.65625 19.207031 22.5 18.425781 23.359375 C 17.644531 24.222656 16.882812 25.105469 16.144531 26.003906 C 15.40625 26.902344 14.691406 27.820312 13.996094 28.757812 C 13.304688 29.691406 12.632812 30.644531 11.988281 31.609375 C 11.339844 32.578125 10.71875 33.5625 10.121094 34.558594 C 9.519531 35.558594 8.945312 36.570312 8.398438 37.597656 C 7.851562 38.625 7.328125 39.664062 6.828125 40.714844 C 6.332031 41.769531 5.859375 42.832031 5.414062 43.90625 C 4.96875 44.984375 4.550781 46.070312 4.15625 47.164062 C 3.765625 48.261719 3.402344 49.367188 3.0625 50.480469 C 2.726562 51.59375 2.414062 52.714844 2.132812 53.84375 C 1.847656 54.972656 1.59375 56.109375 1.367188 57.25 C 1.140625 58.390625 0.941406 59.539062 0.769531 60.691406 C 0.597656 61.839844 0.457031 62.996094 0.34375 64.15625 C 0.226562 65.3125 0.144531 66.472656 0.0859375 67.636719 C 0.0273438 68.800781 0 69.960938 0 71.125 C 0 72.289062 0.0273438 73.453125 0.0859375 74.617188 C 0.144531 75.777344 0.226562 76.941406 0.34375 78.097656 C 0.457031 79.257812 0.597656 80.410156 0.769531 81.5625 C 0.941406 82.714844 1.140625 83.859375 1.367188 85.003906 C 1.59375 86.144531 1.847656 87.28125 2.132812 88.410156 C 2.414062 89.539062 2.726562 90.660156 3.0625 91.773438 C 3.402344 92.886719 3.765625 93.992188 4.15625 95.089844 C 4.550781 96.183594 4.96875 97.269531 5.414062 98.34375 C 5.859375 99.421875 6.332031 100.484375 6.828125 101.535156 C 7.328125 102.589844 7.851562 103.628906 8.398438 104.65625 C 8.945312 105.683594 9.519531 106.695312 10.121094 107.691406 C 10.71875 108.691406 11.339844 109.675781 11.988281 110.640625 C 12.632812 111.609375 13.304688 112.5625 13.996094 113.496094 C 14.691406 114.429688 15.40625 115.347656 16.144531 116.25 C 16.882812 117.148438 17.644531 118.03125 18.425781 118.890625 C 19.207031 119.753906 20.007812 120.597656 20.832031 121.421875 C 21.65625 122.242188 22.5 123.046875 23.359375 123.828125 C 24.222656 124.609375 25.105469 125.371094 26.003906 126.109375 C 26.902344 126.847656 27.820312 127.5625 28.757812 128.253906 C 29.691406 128.949219 30.644531 129.621094 31.609375 130.265625 C 32.578125 130.914062 33.5625 131.535156 34.558594 132.132812 C 35.558594 132.730469 36.570312 133.304688 37.597656 133.855469 C 38.625 134.402344 39.664062 134.925781 40.714844 135.425781 C 41.769531 135.921875 42.832031 136.394531 43.90625 136.839844 C 44.984375 137.285156 46.070312 137.703125 47.164062 138.09375 C 48.261719 138.488281 49.367188 138.851562 50.480469 139.191406 C 51.59375 139.527344 52.714844 139.839844 53.84375 140.121094 C 54.972656 140.402344 56.109375 140.660156 57.25 140.886719 C 58.390625 141.113281 59.539062 141.3125 60.691406 141.484375 C 61.839844 141.652344 62.996094 141.796875 64.15625 141.910156 C 65.3125 142.023438 66.472656 142.109375 67.636719 142.167969 C 68.800781 142.222656 69.960938 142.253906 71.125 142.253906 C 72.289062 142.253906 73.453125 142.222656 74.617188 142.167969 C 75.777344 142.109375 76.941406 142.023438 78.097656 141.910156 C 79.257812 141.796875 80.410156 141.652344 81.5625 141.484375 C 82.714844 141.3125 83.859375 141.113281 85.003906 140.886719 C 86.144531 140.660156 87.28125 140.402344 88.410156 140.121094 C 89.539062 139.839844 90.660156 139.527344 91.773438 139.191406 C 92.886719 138.851562 93.992188 138.488281 95.089844 138.09375 C 96.183594 137.703125 97.269531 137.285156 98.34375 136.839844 C 99.421875 136.394531 100.484375 135.921875 101.535156 135.425781 C 102.589844 134.925781 103.628906 134.402344 104.65625 133.855469 C 105.683594 133.304688 106.695312 132.730469 107.691406 132.132812 C 108.691406 131.535156 109.675781 130.914062 110.640625 130.265625 C 111.609375 129.621094 112.5625 128.949219 113.496094 128.253906 C 114.429688 127.5625 115.347656 126.847656 116.25 126.109375 C 117.148438 125.371094 118.03125 124.609375 118.890625 123.828125 C 119.753906 123.046875 120.597656 122.242188 121.421875 121.421875 C 122.242188 120.597656 123.046875 119.753906 123.828125 118.890625 C 124.609375 118.03125 125.371094 117.148438 126.109375 116.25 C 126.847656 115.347656 127.5625 114.429688 128.253906 113.496094 C 128.949219 112.5625 129.621094 111.609375 130.265625 110.640625 C 130.914062 109.675781 131.535156 108.691406 132.132812 107.691406 C 132.730469 106.695312 133.304688 105.683594 133.855469 104.65625 C 134.402344 103.628906 134.925781 102.589844 135.425781 101.535156 C 135.921875 100.484375 136.394531 99.421875 136.839844 98.34375 C 137.285156 97.269531 137.703125 96.183594 138.09375 95.089844 C 138.488281 93.992188 138.851562 92.886719 139.191406 91.773438 C 139.527344 90.660156 139.839844 89.539062 140.121094 88.410156 C 140.402344 87.28125 140.660156 86.144531 140.886719 85.003906 C 141.113281 83.859375 141.3125 82.714844 141.484375 81.5625 C 141.652344 80.410156 141.796875 79.257812 141.910156 78.097656 C 142.023438 76.941406 142.109375 75.777344 142.167969 74.617188 C 142.222656 73.453125 142.253906 72.289062 142.253906 71.125 C 142.253906 69.960938 142.222656 68.800781 142.167969 67.636719 C 142.109375 66.472656 142.023438 65.3125 141.910156 64.15625 C 141.796875 62.996094 141.652344 61.839844 141.484375 60.691406 C 141.3125 59.539062 141.113281 58.390625 140.886719 57.25 C 140.660156 56.109375 140.402344 54.972656 140.121094 53.84375 C 139.839844 52.714844 139.527344 51.59375 139.191406 50.480469 C 138.851562 49.367188 138.488281 48.261719 138.09375 47.164062 C 137.703125 46.070312 137.285156 44.984375 136.839844 43.90625 C 136.394531 42.832031 135.921875 41.769531 135.425781 40.714844 C 134.925781 39.664062 134.402344 38.625 133.855469 37.597656 C 133.304688 36.570312 132.730469 35.558594 132.132812 34.558594 C 131.535156 33.5625 130.914062 32.578125 130.265625 31.609375 C 129.621094 30.644531 128.949219 29.691406 128.253906 28.757812 C 127.5625 27.820312 126.847656 26.902344 126.109375 26.003906 C 125.371094 25.105469 124.609375 24.222656 123.828125 23.359375 C 123.046875 22.5 122.242188 21.65625 121.421875 20.832031 C 120.597656 20.007812 119.753906 19.207031 118.890625 18.425781 C 118.03125 17.644531 117.148438 16.882812 116.25 16.144531 C 115.347656 15.40625 114.429688 14.691406 113.496094 13.996094 C 112.5625 13.304688 111.609375 12.632812 110.640625 11.988281 C 109.675781 11.339844 108.691406 10.71875 107.691406 10.121094 C 106.695312 9.519531 105.683594 8.945312 104.65625 8.398438 C 103.628906 7.851562 102.589844 7.328125 101.535156 6.828125 C 100.484375 6.332031 99.421875 5.859375 98.34375 5.414062 C 97.269531 4.96875 96.183594 4.550781 95.089844 4.15625 C 93.992188 3.765625 92.886719 3.402344 91.773438 3.0625 C 90.660156 2.726562 89.539062 2.414062 88.410156 2.132812 C 87.28125 1.847656 86.144531 1.59375 85.003906 1.367188 C 83.859375 1.140625 82.714844 0.941406 81.5625 0.769531 C 80.410156 0.597656 79.257812 0.457031 78.097656 0.34375 C 76.941406 0.226562 75.777344 0.144531 74.617188 0.0859375 C 73.453125 0.0273438 72.289062 0 71.125 0 Z M 71.125 0 "/>
<path style=" stroke:none;fill-rule:nonzero;fill:rgb(45.878601%,56.469727%,98.81897%);fill-opacity:1;" d="M 71.125 232.746094 C 69.960938 232.746094 68.800781 232.777344 67.636719 232.832031 C 66.472656 232.890625 65.3125 232.976562 64.15625 233.089844 C 62.996094 233.203125 61.839844 233.347656 60.691406 233.515625 C 59.539062 233.6875 58.390625 233.886719 57.25 234.113281 C 56.109375 234.339844 54.972656 234.597656 53.84375 234.878906 C 52.714844 235.160156 51.59375 235.472656 50.480469 235.808594 C 49.367188 236.148438 48.261719 236.511719 47.164062 236.90625 C 46.070312 237.296875 44.984375 237.714844 43.90625 238.160156 C 42.832031 238.605469 41.769531 239.078125 40.714844 239.574219 C 39.664062 240.074219 38.625 240.597656 37.597656 241.144531 C 36.570312 241.695312 35.558594 242.269531 34.558594 242.867188 C 33.5625 243.464844 32.578125 244.085938 31.609375 244.734375 C 30.644531 245.378906 29.691406 246.050781 28.757812 246.746094 C 27.820312 247.4375 26.902344 248.152344 26.003906 248.890625 C 25.105469 249.628906 24.222656 250.390625 23.359375 251.171875 C 22.5 251.953125 21.65625 252.757812 20.832031 253.578125 C 20.007812 254.402344 19.207031 255.246094 18.425781 256.109375 C 17.644531 256.96875 16.882812 257.851562 16.144531 258.75 C 15.40625 259.652344 14.691406 260.570312 13.996094 261.503906 C 13.304688 262.4375 12.632812 263.390625 11.988281 264.359375 C 11.339844 265.324219 10.71875 266.308594 10.121094 267.308594 C 9.519531 268.304688 8.945312 269.316406 8.398438 270.34375 C 7.851562 271.371094 7.328125 272.410156 6.828125 273.464844 C 6.332031 274.515625 5.859375 275.578125 5.414062 276.65625 C 4.96875 277.730469 4.550781 278.816406 4.15625 279.910156 C 3.765625 281.007812 3.402344 282.113281 3.0625 283.226562 C 2.726562 284.339844 2.414062 285.460938 2.132812 286.589844 C 1.847656 287.71875 1.59375 288.855469 1.367188 289.996094 C 1.140625 291.140625 0.941406 292.285156 0.769531 293.4375 C 0.597656 294.589844 0.457031 295.742188 0.34375 296.902344 C 0.226562 298.058594 0.144531 299.222656 0.0859375 300.382812 C 0.0273438 301.546875 0 302.710938 0 303.875 C 0 305.039062 0.0273438 306.199219 0.0859375 307.363281 C 0.144531 308.527344 0.226562 309.6875 0.34375 310.84375 C 0.457031 312.003906 0.597656 313.160156 0.769531 314.308594 C 0.941406 315.460938 1.140625 316.609375 1.367188 317.75 C 1.59375 318.890625 1.847656 320.027344 2.132812 321.15625 C 2.414062 322.285156 2.726562 323.40625 3.0625 324.519531 C 3.402344 325.632812 3.765625 326.738281 4.15625 327.835938 C 4.550781 328.929688 4.96875 330.015625 5.414062 331.09375 C 5.859375 332.167969 6.332031 333.230469 6.828125 334.285156 C 7.328125 335.335938 7.851562 336.375 8.398438 337.402344 C 8.945312 338.429688 9.519531 339.441406 10.121094 340.441406 C 10.71875 341.4375 11.339844 342.421875 11.988281 343.390625 C 12.632812 344.355469 13.304688 345.308594 13.996094 346.242188 C 14.691406 347.179688 15.40625 348.097656 16.144531 348.996094 C 16.882812 349.894531 17.644531 350.777344 18.425781 351.640625 C 19.207031 352.5 20.007812 353.34375 20.832031 354.167969 C 21.65625 354.992188 22.5 355.792969 23.359375 356.574219 C 24.222656 357.355469 25.105469 358.117188 26.003906 358.855469 C 26.902344 359.59375 27.820312 360.308594 28.757812 361.003906 C 29.691406 361.695312 30.644531 362.367188 31.609375 363.011719 C 32.578125 363.660156 33.5625 364.28125 34.558594 364.878906 C 35.558594 365.480469 36.570312 366.050781 37.597656 366.601562 C 38.625 367.148438 39.664062 367.671875 40.714844 368.171875 C 41.769531 368.667969 42.832031 369.140625 43.90625 369.585938 C 44.984375 370.03125 46.070312 370.449219 47.164062 370.84375 C 48.261719 371.234375 49.367188 371.597656 50.480469 371.9375 C 51.59375 372.273438 52.714844 372.585938 53.84375 372.867188 C 54.972656 373.152344 56.109375 373.40625 57.25 373.632812 C 58.390625 373.859375 59.539062 374.058594 60.691406 374.230469 C 61.839844 374.402344 62.996094 374.542969 64.15625 374.65625 C 65.3125 374.773438 66.472656 374.855469 67.636719 374.914062 C 68.800781 374.972656 69.960938 375 71.125 375 C 72.289062 375 73.453125 374.972656 74.617188 374.914062 C 75.777344 374.855469 76.941406 374.773438 78.097656 374.65625 C 79.257812 374.542969 80.410156 374.402344 81.5625 374.230469 C 82.714844 374.058594 83.859375 373.859375 85.003906 373.632812 C 86.144531 373.40625 87.28125 373.152344 88.410156 372.867188 C 89.539062 372.585938 90.660156 372.273438 91.773438 371.9375 C 92.886719 371.597656 93.992188 371.234375 95.089844 370.84375 C 96.183594 370.449219 97.269531 370.03125 98.34375 369.585938 C 99.421875 369.140625 100.484375 368.667969 101.535156 368.171875 C 102.589844 367.671875 103.628906 367.148438 104.65625 366.601562 C 105.683594 366.050781 106.695312 365.480469 107.691406 364.878906 C 108.691406 364.28125 109.675781 363.660156 110.640625 363.011719 C 111.609375 362.367188 112.5625 361.695312 113.496094 361.003906 C 114.429688 360.308594 115.347656 359.59375 116.25 358.855469 C 117.148438 358.117188 118.03125 357.355469 118.890625 356.574219 C 119.753906 355.792969 120.597656 354.992188 121.421875 354.167969 C 122.242188 353.34375 123.046875 352.5 123.828125 351.640625 C 124.609375 350.777344 125.371094 349.894531 126.109375 348.996094 C 126.847656 348.097656 127.5625 347.179688 128.253906 346.242188 C 128.949219 345.308594 129.621094 344.355469 130.265625 343.390625 C 130.914062 342.421875 131.535156 341.4375 132.132812 340.441406 C 132.730469 339.441406 133.304688 338.429688 133.855469 337.402344 C 134.402344 336.375 134.925781 335.335938 135.425781 334.285156 C 135.921875 333.230469 136.394531 332.167969 136.839844 331.09375 C 137.285156 330.015625 137.703125 328.929688 138.09375 327.835938 C 138.488281 326.738281 138.851562 325.632812 139.191406 324.519531 C 139.527344 323.40625 139.839844 322.285156 140.121094 321.15625 C 140.402344 320.027344 140.660156 318.890625 140.886719 317.75 C 141.113281 316.609375 141.3125 315.460938 141.484375 314.308594 C 141.652344 313.160156 141.796875 312.003906 141.910156 310.84375 C 142.023438 309.6875 142.109375 308.527344 142.167969 307.363281 C 142.222656 306.199219 142.253906 305.039062 142.253906 303.875 C 142.253906 302.710938 142.222656 301.546875 142.167969 300.382812 C 142.109375 299.222656 142.023438 298.058594 141.910156 296.902344 C 141.796875 295.742188 141.652344 294.589844 141.484375 293.4375 C 141.3125 292.285156 141.113281 291.140625 140.886719 289.996094 C 140.660156 288.855469 140.402344 287.71875 140.121094 286.589844 C 139.839844 285.460938 139.527344 284.339844 139.191406 283.226562 C 138.851562 282.113281 138.488281 281.007812 138.09375 279.910156 C 137.703125 278.816406 137.285156 277.730469 136.839844 276.65625 C 136.394531 275.578125 135.921875 274.515625 135.425781 273.464844 C 134.925781 272.410156 134.402344 271.371094 133.855469 270.34375 C 133.304688 269.316406 132.730469 268.304688 132.132812 267.308594 C 131.535156 266.308594 130.914062 265.324219 130.265625 264.359375 C 129.621094 263.390625 128.949219 262.4375 128.253906 261.503906 C 127.5625 260.570312 126.847656 259.652344 126.109375 258.75 C 125.371094 257.851562 124.609375 256.96875 123.828125 256.109375 C 123.046875 255.246094 122.242188 254.402344 121.421875 253.578125 C 120.597656 252.757812 119.753906 251.953125 118.890625 251.171875 C 118.03125 250.390625 117.148438 249.628906 116.25 248.890625 C 115.347656 248.152344 114.429688 247.4375 113.496094 246.742188 C 112.5625 246.050781 111.609375 245.378906 110.640625 244.734375 C 109.675781 244.085938 108.691406 243.464844 107.691406 242.867188 C 106.695312 242.269531 105.683594 241.695312 104.65625 241.144531 C 103.628906 240.597656 102.589844 240.074219 101.535156 239.574219 C 100.484375 239.078125 99.421875 238.605469 98.34375 238.160156 C 97.269531 237.714844 96.183594 237.296875 95.089844 236.90625 C 93.992188 236.511719 92.886719 236.148438 91.773438 235.808594 C 90.660156 235.472656 89.539062 235.160156 88.410156 234.878906 C 87.28125 234.597656 86.144531 234.339844 85.003906 234.113281 C 83.859375 233.886719 82.714844 233.6875 81.5625 233.515625 C 80.410156 233.347656 79.257812 233.203125 78.097656 233.089844 C 76.941406 232.976562 75.777344 232.890625 74.617188 232.832031 C 73.453125 232.777344 72.289062 232.746094 71.125 232.746094 Z M 71.125 232.746094 "/>
<path style=" stroke:none;fill-rule:nonzero;fill:rgb(2.749634%,8.239746%,26.669312%);fill-opacity:1;" d="M 303.875 0 C 302.710938 0 301.546875 0.0273438 300.382812 0.0859375 C 299.222656 0.144531 298.058594 0.226562 296.902344 0.34375 C 295.742188 0.457031 294.589844 0.597656 293.4375 0.769531 C 292.285156 0.941406 291.140625 1.140625 289.996094 1.367188 C 288.855469 1.59375 287.71875 1.847656 286.589844 2.132812 C 285.460938 2.414062 284.339844 2.726562 283.226562 3.0625 C 282.113281 3.402344 281.007812 3.765625 279.910156 4.15625 C 278.816406 4.550781 277.730469 4.96875 276.65625 5.414062 C 275.578125 5.859375 274.515625 6.332031 273.464844 6.828125 C 272.410156 7.328125 271.371094 7.851562 270.34375 8.398438 C 269.316406 8.945312 268.304688 9.519531 267.308594 10.121094 C 266.308594 10.71875 265.324219 11.339844 264.359375 11.988281 C 263.390625 12.632812 262.4375 13.304688 261.503906 13.996094 C 260.570312 14.691406 259.652344 15.40625 258.75 16.144531 C 257.851562 16.882812 256.96875 17.644531 256.109375 18.425781 C 255.246094 19.207031 254.402344 20.007812 253.578125 20.832031 C 252.757812 21.65625 251.953125 22.5 251.171875 23.359375 C 250.390625 24.222656 249.628906 25.105469 248.890625 26.003906 C 248.152344 26.902344 247.4375 27.820312 246.746094 28.757812 C 246.050781 29.691406 245.378906 30.644531 244.734375 31.609375 C 244.085938 32.578125 243.464844 33.5625 242.867188 34.558594 C 242.269531 35.558594 241.695312 36.570312 241.144531 37.597656 C 240.597656 38.625 240.074219 39.664062 239.574219 40.714844 C 239.078125 41.769531 238.605469 42.832031 238.160156 43.90625 C 237.714844 44.984375 237.296875 46.070312 236.90625 47.164062 C 236.511719 48.261719 236.148438 49.367188 235.808594 50.480469 C 235.472656 51.59375 235.160156 52.714844 234.878906 53.84375 C 234.597656 54.972656 234.339844 56.109375 234.113281 57.25 C 233.886719 58.390625 233.6875 59.539062 233.515625 60.691406 C 233.347656 61.839844 233.203125 62.996094 233.089844 64.15625 C 232.976562 65.3125 232.890625 66.472656 232.832031 67.636719 C 232.777344 68.800781 232.746094 69.960938 232.746094 71.125 C 232.746094 72.289062 232.777344 73.453125 232.832031 74.617188 C 232.890625 75.777344 232.976562 76.941406 233.089844 78.097656 C 233.203125 79.257812 233.347656 80.410156 233.515625 81.5625 C 233.6875 82.714844 233.886719 83.859375 234.113281 85.003906 C 234.339844 86.144531 234.597656 87.28125 234.878906 88.410156 C 235.160156 89.539062 235.472656 90.660156 235.808594 91.773438 C 236.148438 92.886719 236.511719 93.992188 236.90625 95.089844 C 237.296875 96.183594 237.714844 97.269531 238.160156 98.34375 C 238.605469 99.421875 239.078125 100.484375 239.574219 101.535156 C 240.074219 102.589844 240.597656 103.628906 241.144531 104.65625 C 241.695312 105.683594 242.269531 106.695312 242.867188 107.691406 C 243.464844 108.691406 244.085938 109.675781 244.734375 110.640625 C 245.378906 111.609375 246.050781 112.5625 246.746094 113.496094 C 247.4375 114.429688 248.152344 115.347656 248.890625 116.25 C 249.628906 117.148438 250.390625 118.03125 251.171875 118.890625 C 251.953125 119.753906 252.757812 120.597656 253.578125 121.421875 C 254.402344 122.242188 255.246094 123.046875 256.109375 123.828125 C 256.96875 124.609375 257.851562 125.371094 258.75 126.109375 C 259.652344 126.847656 260.570312 127.5625 261.503906 128.253906 C 262.4375 128.949219 263.390625 129.621094 264.359375 130.265625 C 265.324219 130.914062 266.308594 131.535156 267.308594 132.132812 C 268.304688 132.730469 269.316406 133.304688 270.34375 133.855469 C 271.371094 134.402344 272.410156 134.925781 273.464844 135.425781 C 274.515625 135.921875 275.578125 136.394531 276.65625 136.839844 C 277.730469 137.285156 278.816406 137.703125 279.910156 138.09375 C 281.007812 138.488281 282.113281 138.851562 283.226562 139.191406 C 284.339844 139.527344 285.460938 139.839844 286.589844 140.121094 C 287.71875 140.402344 288.855469 140.660156 289.996094 140.886719 C 291.140625 141.113281 292.285156 141.3125 293.4375 141.484375 C 294.589844 141.652344 295.742188 141.796875 296.902344 141.910156 C 298.058594 142.023438 299.222656 142.109375 300.382812 142.167969 C 301.546875 142.222656 302.710938 142.253906 303.875 142.253906 C 305.039062 142.253906 306.199219 142.222656 307.363281 142.167969 C 308.527344 142.109375 309.6875 142.023438 310.84375 141.910156 C 312.003906 141.796875 313.160156 141.652344 314.308594 141.484375 C 315.460938 141.3125 316.609375 141.113281 317.75 140.886719 C 318.890625 140.660156 320.027344 140.402344 321.15625 140.121094 C 322.285156 139.839844 323.40625 139.527344 324.519531 139.191406 C 325.632812 138.851562 326.738281 138.488281 327.835938 138.09375 C 328.929688 137.703125 330.015625 137.285156 331.09375 136.839844 C 332.167969 136.394531 333.230469 135.921875 334.285156 135.425781 C 335.335938 134.925781 336.375 134.402344 337.402344 133.855469 C 338.429688 133.304688 339.441406 132.730469 340.441406 132.132812 C 341.4375 131.535156 342.421875 130.914062 343.390625 130.265625 C 344.355469 129.621094 345.308594 128.949219 346.242188 128.253906 C 347.179688 127.5625 348.097656 126.847656 348.996094 126.109375 C 349.894531 125.371094 350.777344 124.609375 351.640625 123.828125 C 352.5 123.046875 353.34375 122.242188 354.167969 121.421875 C 354.992188 120.597656 355.792969 119.753906 356.574219 118.890625 C 357.355469 118.03125 358.117188 117.148438 358.855469 116.25 C 359.59375 115.347656 360.308594 114.429688 361.003906 113.496094 C 361.695312 112.5625 362.367188 111.609375 363.011719 110.640625 C 363.660156 109.675781 364.28125 108.691406 364.878906 107.691406 C 365.480469 106.695312 366.050781 105.683594 366.601562 104.65625 C 367.148438 103.628906 367.671875 102.589844 368.171875 101.535156 C 368.667969 100.484375 369.140625 99.421875 369.585938 98.34375 C 370.03125 97.269531 370.449219 96.183594 370.84375 95.089844 C 371.234375 93.992188 371.597656 92.886719 371.9375 91.773438 C 372.273438 90.660156 372.585938 89.539062 372.867188 88.410156 C 373.152344 87.28125 373.40625 86.144531 373.632812 85.003906 C 373.859375 83.859375 374.058594 82.714844 374.230469 81.5625 C 374.402344 80.410156 374.542969 79.257812 374.65625 78.097656 C 374.773438 76.941406 374.855469 75.777344 374.914062 74.617188 C 374.972656 73.453125 375 72.289062 375 71.125 C 375 69.960938 374.972656 68.800781 374.914062 67.636719 C 374.855469 66.472656 374.773438 65.3125 374.65625 64.15625 C 374.542969 62.996094 374.402344 61.839844 374.230469 60.691406 C 374.058594 59.539062 373.859375 58.390625 373.632812 57.25 C 373.40625 56.109375 373.152344 54.972656 372.867188 53.84375 C 372.585938 52.714844 372.273438 51.59375 371.9375 50.480469 C 371.597656 49.367188 371.234375 48.261719 370.84375 47.164062 C 370.449219 46.070312 370.03125 44.984375 369.585938 43.90625 C 369.140625 42.832031 368.667969 41.769531 368.171875 40.714844 C 367.671875 39.664062 367.148438 38.625 366.601562 37.597656 C 366.050781 36.570312 365.480469 35.558594 364.878906 34.558594 C 364.28125 33.5625 363.660156 32.578125 363.011719 31.609375 C 362.367188 30.644531 361.695312 29.691406 361.003906 28.757812 C 360.308594 27.820312 359.59375 26.902344 358.855469 26.003906 C 358.117188 25.105469 357.355469 24.222656 356.574219 23.359375 C 355.792969 22.5 354.992188 21.65625 354.167969 20.832031 C 353.34375 20.007812 352.5 19.207031 351.640625 18.425781 C 350.777344 17.644531 349.894531 16.882812 348.996094 16.144531 C 348.097656 15.40625 347.179688 14.691406 346.242188 13.996094 C 345.308594 13.304688 344.355469 12.632812 343.390625 11.988281 C 342.421875 11.339844 341.4375 10.71875 340.441406 10.121094 C 339.441406 9.519531 338.429688 8.945312 337.402344 8.398438 C 336.375 7.851562 335.335938 7.328125 334.285156 6.828125 C 333.230469 6.332031 332.167969 5.859375 331.09375 5.414062 C 330.015625 4.96875 328.929688 4.550781 327.835938 4.15625 C 326.738281 3.765625 325.632812 3.402344 324.519531 3.0625 C 323.40625 2.726562 322.285156 2.414062 321.15625 2.132812 C 320.027344 1.847656 318.890625 1.59375 317.75 1.367188 C 316.609375 1.140625 315.460938 0.941406 314.308594 0.769531 C 313.160156 0.597656 312.003906 0.457031 310.84375 0.34375 C 309.6875 0.226562 308.527344 0.144531 307.363281 0.0859375 C 306.199219 0.0273438 305.039062 0 303.875 0 Z M 303.875 0 "/>
<path style=" stroke:none;fill-rule:nonzero;fill:rgb(45.878601%,56.469727%,98.81897%);fill-opacity:1;" d="M 187.503906 286.179688 L 286.269531 187.417969 L 350.273438 251.425781 L 251.511719 350.1875 Z M 187.503906 286.179688 "/>
<path style=" stroke:none;fill-rule:nonzero;fill:rgb(85.099792%,63.919067%,85.099792%);fill-opacity:1;" d="M 303.875 232.746094 C 302.710938 232.746094 301.546875 232.777344 300.382812 232.832031 C 299.222656 232.890625 298.058594 232.976562 296.902344 233.089844 C 295.742188 233.203125 294.589844 233.347656 293.4375 233.515625 C 292.285156 233.6875 291.140625 233.886719 289.996094 234.113281 C 288.855469 234.339844 287.71875 234.597656 286.589844 234.878906 C 285.460938 235.160156 284.339844 235.472656 283.226562 235.808594 C 282.113281 236.148438 281.007812 236.511719 279.910156 236.90625 C 278.816406 237.296875 277.730469 237.714844 276.65625 238.160156 C 275.578125 238.605469 274.515625 239.078125 273.464844 239.574219 C 272.410156 240.074219 271.371094 240.597656 270.34375 241.144531 C 269.316406 241.695312 268.304688 242.269531 267.308594 242.867188 C 266.308594 243.464844 265.324219 244.085938 264.359375 244.734375 C 263.390625 245.378906 262.4375 246.050781 261.503906 246.746094 C 260.570312 247.4375 259.652344 248.152344 258.75 248.890625 C 257.851562 249.628906 256.96875 250.390625 256.109375 251.171875 C 255.246094 251.953125 254.402344 252.757812 253.578125 253.578125 C 252.757812 254.402344 251.953125 255.246094 251.171875 256.109375 C 250.390625 256.96875 249.628906 257.851562 248.890625 258.75 C 248.152344 259.652344 247.4375 260.570312 246.746094 261.503906 C 246.050781 262.4375 245.378906 263.390625 244.734375 264.359375 C 244.085938 265.324219 243.464844 266.308594 242.867188 267.308594 C 242.269531 268.304688 241.695312 269.316406 241.144531 270.34375 C 240.597656 271.371094 240.074219 272.410156 239.574219 273.464844 C 239.078125 274.515625 238.605469 275.578125 238.160156 276.65625 C 237.714844 277.730469 237.296875 278.816406 236.90625 279.910156 C 236.511719 281.007812 236.148438 282.113281 235.808594 283.226562 C 235.472656 284.339844 235.160156 285.460938 234.878906 286.589844 C 234.597656 287.71875 234.339844 288.855469 234.113281 289.996094 C 233.886719 291.140625 233.6875 292.285156 233.515625 293.4375 C 233.347656 294.589844 233.203125 295.742188 233.089844 296.902344 C 232.976562 298.058594 232.890625 299.222656 232.832031 300.382812 C 232.777344 301.546875 232.746094 302.710938 232.746094 303.875 C 232.746094 305.039062 232.777344 306.199219 232.832031 307.363281 C 232.890625 308.527344 232.976562 309.6875 233.089844 310.84375 C 233.203125 312.003906 233.347656 313.160156 233.515625 314.308594 C 233.6875 315.460938 233.886719 316.609375 234.113281 317.75 C 234.339844 318.890625 234.597656 320.027344 234.878906 321.15625 C 235.160156 322.285156 235.472656 323.40625 235.808594 324.519531 C 236.148438 325.632812 236.511719 326.738281 236.90625 327.835938 C 237.296875 328.929688 237.714844 330.015625 238.160156 331.09375 C 238.605469 332.167969 239.078125 333.230469 239.574219 334.285156 C 240.074219 335.335938 240.597656 336.375 241.144531 337.402344 C 241.695312 338.429688 242.269531 339.441406 242.867188 340.441406 C 243.464844 341.4375 244.085938 342.421875 244.734375 343.390625 C 245.378906 344.355469 246.050781 345.308594 246.746094 346.242188 C 247.4375 347.179688 248.152344 348.097656 248.890625 348.996094 C 249.628906 349.894531 250.390625 350.777344 251.171875 351.640625 C 251.953125 352.5 252.757812 353.34375 253.578125 354.167969 C 254.402344 354.992188 255.246094 355.792969 256.109375 356.574219 C 256.96875 357.355469 257.851562 358.117188 258.75 358.855469 C 259.652344 359.59375 260.570312 360.308594 261.503906 361.003906 C 262.4375 361.695312 263.390625 362.367188 264.359375 363.011719 C 265.324219 363.660156 266.308594 364.28125 267.308594 364.878906 C 268.304688 365.480469 269.316406 366.050781 270.34375 366.601562 C 271.371094 367.148438 272.410156 367.671875 273.464844 368.171875 C 274.515625 368.667969 275.578125 369.140625 276.65625 369.585938 C 277.730469 370.03125 278.816406 370.449219 279.910156 370.84375 C 281.007812 371.234375 282.113281 371.597656 283.226562 371.9375 C 284.339844 372.273438 285.460938 372.585938 286.589844 372.867188 C 287.71875 373.152344 288.855469 373.40625 289.996094 373.632812 C 291.140625 373.859375 292.285156 374.058594 293.4375 374.230469 C 294.589844 374.402344 295.742188 374.542969 296.902344 374.65625 C 298.058594 374.773438 299.222656 374.855469 300.382812 374.914062 C 301.546875 374.972656 302.710938 375 303.875 375 C 305.039062 375 306.199219 374.972656 307.363281 374.914062 C 308.527344 374.855469 309.6875 374.773438 310.84375 374.65625 C 312.003906 374.542969 313.160156 374.402344 314.308594 374.230469 C 315.460938 374.058594 316.609375 373.859375 317.75 373.632812 C 318.890625 373.40625 320.027344 373.152344 321.15625 372.867188 C 322.285156 372.585938 323.40625 372.273438 324.519531 371.9375 C 325.632812 371.597656 326.738281 371.234375 327.835938 370.84375 C 328.929688 370.449219 330.015625 370.03125 331.09375 369.585938 C 332.167969 369.140625 333.230469 368.667969 334.285156 368.171875 C 335.335938 367.671875 336.375 367.148438 337.402344 366.601562 C 338.429688 366.050781 339.441406 365.480469 340.441406 364.878906 C 341.4375 364.28125 342.421875 363.660156 343.390625 363.011719 C 344.355469 362.367188 345.308594 361.695312 346.242188 361.003906 C 347.179688 360.308594 348.097656 359.59375 348.996094 358.855469 C 349.894531 358.117188 350.777344 357.355469 351.640625 356.574219 C 352.5 355.792969 353.34375 354.992188 354.167969 354.167969 C 354.992188 353.34375 355.792969 352.5 356.574219 351.640625 C 357.355469 350.777344 358.117188 349.894531 358.855469 348.996094 C 359.59375 348.097656 360.308594 347.179688 361.003906 346.242188 C 361.695312 345.308594 362.367188 344.355469 363.011719 343.390625 C 363.660156 342.421875 364.28125 341.4375 364.878906 340.441406 C 365.480469 339.441406 366.050781 338.429688 366.601562 337.402344 C 367.148438 336.375 367.671875 335.335938 368.171875 334.285156 C 368.667969 333.230469 369.140625 332.167969 369.585938 331.09375 C 370.03125 330.015625 370.449219 328.929688 370.84375 327.835938 C 371.234375 326.738281 371.597656 325.632812 371.9375 324.519531 C 372.273438 323.40625 372.585938 322.285156 372.867188 321.15625 C 373.152344 320.027344 373.40625 318.890625 373.632812 317.75 C 373.859375 316.609375 374.058594 315.460938 374.230469 314.308594 C 374.402344 313.160156 374.542969 312.003906 374.65625 310.84375 C 374.773438 309.6875 374.855469 308.527344 374.914062 307.363281 C 374.972656 306.199219 375 305.039062 375 303.875 C 375 302.710938 374.972656 301.546875 374.914062 300.382812 C 374.855469 299.222656 374.773438 298.058594 374.65625 296.902344 C 374.542969 295.742188 374.402344 294.589844 374.230469 293.4375 C 374.058594 292.285156 373.859375 291.140625 373.632812 289.996094 C 373.40625 288.855469 373.152344 287.71875 372.867188 286.589844 C 372.585938 285.460938 372.273438 284.339844 371.9375 283.226562 C 371.597656 282.113281 371.234375 281.007812 370.84375 279.910156 C 370.449219 278.816406 370.03125 277.730469 369.585938 276.65625 C 369.140625 275.578125 368.667969 274.515625 368.171875 273.464844 C 367.671875 272.410156 367.148438 271.371094 366.601562 270.34375 C 366.050781 269.316406 365.480469 268.304688 364.878906 267.308594 C 364.28125 266.308594 363.660156 265.324219 363.011719 264.359375 C 362.367188 263.390625 361.695312 262.4375 361.003906 261.503906 C 360.308594 260.570312 359.59375 259.652344 358.855469 258.75 C 358.117188 257.851562 357.355469 256.96875 356.574219 256.109375 C 355.792969 255.246094 354.992188 254.402344 354.167969 253.578125 C 353.34375 252.757812 352.5 251.953125 351.640625 251.171875 C 350.777344 250.390625 349.894531 249.628906 348.996094 248.890625 C 348.097656 248.152344 347.179688 247.4375 346.242188 246.742188 C 345.308594 246.050781 344.355469 245.378906 343.390625 244.734375 C 342.421875 244.085938 341.4375 243.464844 340.441406 242.867188 C 339.441406 242.269531 338.429688 241.695312 337.402344 241.144531 C 336.375 240.597656 335.335938 240.074219 334.285156 239.574219 C 333.230469 239.078125 332.167969 238.605469 331.09375 238.160156 C 330.015625 237.714844 328.929688 237.296875 327.835938 236.90625 C 326.738281 236.511719 325.632812 236.148438 324.519531 235.808594 C 323.40625 235.472656 322.285156 235.160156 321.15625 234.878906 C 320.027344 234.597656 318.890625 234.339844 317.75 234.113281 C 316.609375 233.886719 315.460938 233.6875 314.308594 233.515625 C 313.160156 233.347656 312.003906 233.203125 310.84375 233.089844 C 309.6875 232.976562 308.527344 232.890625 307.363281 232.832031 C 306.199219 232.777344 305.039062 232.746094 303.875 232.746094 Z M 303.875 232.746094 "/>
</g>
</svg>
