<?xml version="1.0" encoding="UTF-8"?>
<svg xmlns="http://www.w3.org/2000/svg" xmlns:xlink="http://www.w3.org/1999/xlink" width="375pt" height="374.999991pt" viewBox="0 0 375 374.999991" version="1.2">
<g id="surface1">
<path style=" stroke:none;fill-rule:nonzero;fill:rgb(100%,100%,100%);fill-opacity:1;" d="M 44.53125 0 L 44.53125 31.25 L 100.5625 31.25 L 2.234375 129.578125 L 24.328125 151.671875 L 122.65625 53.34375 L 122.65625 109.375 L 153.90625 109.375 L 153.90625 0 Z M 310.15625 0 L 310.15625 18.585938 C 307.890625 19.40625 305.6875 20.40625 303.59375 21.546875 C 301.5 22.683594 299.503906 23.964844 297.613281 25.390625 C 295.722656 26.816406 293.957031 28.378906 292.304688 30.058594 C 288.996094 33.421875 286.179688 37.261719 284.003906 41.472656 C 282.914062 43.578125 281.984375 45.792969 281.226562 48.066406 C 279.710938 52.613281 278.90625 57.460938 278.90625 62.5 C 278.90625 65.703125 279.25 68.835938 279.882812 71.867188 C 281.144531 77.9375 283.601562 83.601562 286.992188 88.59375 C 288.6875 91.089844 290.601562 93.421875 292.730469 95.550781 C 296.988281 99.808594 302.058594 103.257812 307.652344 105.652344 C 313.25 108.042969 319.375 109.375 325.78125 109.375 C 328.007812 109.375 330.09375 109.796875 331.976562 110.566406 C 333.859375 111.335938 335.523438 112.464844 336.921875 113.859375 C 338.316406 115.257812 339.445312 116.921875 340.214844 118.804688 C 340.984375 120.6875 341.40625 122.773438 341.40625 125 C 341.40625 131.679688 337.625 137.128906 331.976562 139.433594 C 330.09375 140.203125 328.007812 140.625 325.78125 140.625 C 323.554688 140.625 321.46875 140.203125 319.585938 139.433594 C 317.703125 138.664062 316.039062 137.535156 314.640625 136.140625 C 311.847656 133.347656 310.15625 129.453125 310.15625 125 L 278.90625 125 C 278.90625 127.519531 279.121094 130.003906 279.515625 132.414062 C 279.910156 134.828125 280.46875 137.160156 281.226562 139.433594 C 281.984375 141.710938 282.914062 143.921875 284.003906 146.027344 C 285.089844 148.132812 286.339844 150.128906 287.726562 152.039062 C 289.113281 153.949219 290.648438 155.757812 292.304688 157.441406 C 293.957031 159.121094 295.722656 160.683594 297.613281 162.109375 C 299.503906 163.535156 301.5 164.816406 303.59375 165.953125 C 305.6875 167.09375 307.890625 168.09375 310.15625 168.914062 L 310.15625 187.5 L 341.40625 187.5 L 341.40625 168.914062 C 357.265625 163.171875 369.285156 149.296875 372.046875 132.414062 C 372.441406 130.003906 372.65625 127.519531 372.65625 125 C 372.65625 121.796875 372.3125 118.664062 371.679688 115.632812 C 371.046875 112.597656 370.128906 109.671875 368.933594 106.871094 C 367.738281 104.074219 366.265625 101.402344 364.570312 98.90625 C 362.875 96.410156 360.960938 94.078125 358.832031 91.949219 C 356.703125 89.820312 354.371094 87.90625 351.875 86.210938 C 349.378906 84.515625 346.707031 83.042969 343.910156 81.847656 C 341.109375 80.652344 338.183594 79.734375 335.148438 79.101562 C 332.117188 78.46875 328.984375 78.125 325.78125 78.125 C 323.554688 78.125 321.46875 77.703125 319.585938 76.933594 C 317.703125 76.164062 316.039062 75.035156 314.640625 73.640625 C 313.246094 72.242188 312.117188 70.578125 311.347656 68.695312 C 310.578125 66.8125 310.15625 64.726562 310.15625 62.5 C 310.15625 60.273438 310.578125 58.1875 311.347656 56.304688 C 312.117188 54.421875 313.246094 52.757812 314.640625 51.359375 C 316.039062 49.964844 317.703125 48.835938 319.585938 48.066406 C 321.46875 47.296875 323.554688 46.875 325.78125 46.875 C 334.6875 46.875 341.40625 53.59375 341.40625 62.5 L 372.65625 62.5 C 372.65625 59.980469 372.441406 57.496094 372.046875 55.085938 C 371.652344 52.671875 371.09375 50.339844 370.335938 48.066406 C 365.796875 34.421875 355 23.507812 341.40625 18.585938 L 341.40625 0 Z M 216.40625 125 L 216.40625 375 L 247.65625 375 L 247.65625 125 Z M 153.90625 187.5 L 153.90625 375 L 185.15625 375 L 185.15625 187.5 Z M 278.90625 218.75 L 278.90625 375 L 310.15625 375 L 310.15625 218.75 Z M 341.40625 218.75 L 341.40625 375 L 372.65625 375 L 372.65625 218.75 Z M 91.40625 250 L 91.40625 375 L 122.65625 375 L 122.65625 250 Z M 28.90625 312.5 L 28.90625 375 L 60.15625 375 L 60.15625 312.5 Z M 28.90625 312.5 "/>
</g>
</svg>
