<?xml version="1.0" encoding="UTF-8"?>
<svg xmlns="http://www.w3.org/2000/svg" xmlns:xlink="http://www.w3.org/1999/xlink" width="375pt" height="374.999991pt" viewBox="0 0 375 374.999991" version="1.2">
<g id="surface1">
<path style=" stroke:none;fill-rule:nonzero;fill:rgb(100%,100%,100%);fill-opacity:1;" d="M 103.695312 82.933594 C 124.359375 75.941406 147.335938 72.21875 172.296875 72.21875 C 173.890625 72.21875 175.453125 72.421875 177.046875 72.453125 C 181.40625 65.210938 184.054688 56.84375 184.054688 47.792969 C 184.054688 21.296875 162.597656 -0.171875 136.085938 -0.171875 C 109.574219 -0.171875 88.148438 21.285156 88.148438 47.78125 C 88.148438 61.722656 94.183594 74.160156 103.695312 82.933594 Z M 103.695312 82.933594 "/>
<path style=" stroke:none;fill-rule:nonzero;fill:rgb(100%,100%,100%);fill-opacity:1;" d="M 360.519531 185.328125 L 346.042969 185.328125 C 338.484375 185.328125 335.515625 181.808594 334.359375 178.539062 C 325.671875 154.167969 310.859375 132.03125 290.546875 120.78125 C 287.402344 119.042969 288.128906 145.511719 297.785156 164.828125 C 294.425781 162.21875 276.574219 146.105469 274.257812 117.769531 C 271.941406 89.40625 276.890625 72.523438 288.128906 42.234375 C 265.453125 47.925781 240.363281 60.273438 225.550781 92.984375 C 208.828125 88.898438 190.960938 86.699219 172.296875 86.699219 C 123.476562 86.699219 83.789062 101.351562 56.554688 126.921875 C 52.660156 130.570312 39.746094 150.925781 31.128906 147.320312 C 4.664062 136.230469 20.949219 98.6875 49.226562 119.277344 C 38.367188 87.597656 0.230469 99.367188 0.230469 133.074219 C 0.230469 164.972656 26.828125 167.230469 21.617188 184.257812 C 17.5625 197.492188 15.753906 211.941406 15.753906 227.300781 C 15.753906 263.078125 42.132812 290.3125 61.257812 305.574219 C 63.980469 307.746094 69.46875 311.234375 66.601562 320.097656 C 63.734375 328.957031 58.550781 341.324219 58.550781 341.324219 C 55.554688 349.214844 59.550781 358.089844 67.441406 361.070312 L 96.09375 371.917969 C 103.988281 374.914062 112.847656 370.929688 115.84375 363.039062 C 115.84375 363.039062 119.636719 353.109375 122.765625 344.828125 C 128.628906 329.246094 132.234375 341.886719 172.296875 341.886719 C 213.953125 341.886719 218.179688 333.765625 222.496094 346.519531 C 225.304688 354.832031 228.765625 363.039062 228.765625 363.039062 C 231.761719 370.929688 240.621094 374.914062 248.511719 371.917969 L 277.167969 361.070312 C 285.058594 358.089844 289.054688 349.214844 286.058594 341.324219 L 281.46875 329.175781 C 281.46875 329.175781 276.789062 321.152344 286.796875 315.710938 C 306.789062 304.851562 321.820312 288.359375 331.5625 268.015625 C 333.648438 263.644531 336.6875 257.722656 346.042969 257.722656 L 360.519531 257.722656 C 368.5 257.722656 375 251.222656 375 243.242188 L 375 199.808594 C 375 191.828125 368.5 185.328125 360.519531 185.328125 Z M 295.367188 228.765625 C 283.378906 228.765625 273.648438 219.035156 273.648438 207.046875 C 273.648438 195.058594 283.378906 185.328125 295.367188 185.328125 C 307.355469 185.328125 317.085938 195.058594 317.085938 207.046875 C 317.085938 219.035156 307.355469 228.765625 295.367188 228.765625 Z M 295.367188 228.765625 "/>
</g>
</svg>
