<svg width="100" height="100" viewBox="0 0 100 100" fill="none" xmlns="http://www.w3.org/2000/svg">
<path d="M85.347 8.27395C84.6716 7.84243 83.8273 7.8049 83.1144 8.14261L78.0863 10.5441C70.9756 13.9587 62.5515 13.1145 56.2476 8.36775C48.5553 2.57038 38.2551 1.55725 29.5684 5.72235L27.0168 6.96063C25.8536 4.9156 23.6773 3.65856 21.3133 3.65856H18.818C15.2532 3.65856 12.3452 6.54787 12.3452 10.1126V90.3565C12.3077 93.94 15.1782 96.8856 18.7805 96.9231H21.332C24.9343 96.9043 27.8424 93.9963 27.8236 90.394V48.8743L31.5759 47.1107C38.7054 43.6961 47.1294 44.5404 53.4333 49.2871C61.1444 55.0845 71.4258 56.0976 80.1313 51.9325L85.1219 49.531C85.9287 49.137 86.4352 48.3115 86.4165 47.4109V10.2439C86.4165 9.45594 86.0225 8.70547 85.347 8.27395ZM23.3583 90.3753C23.3583 91.4072 22.514 92.2514 21.4821 92.2514H18.9118C17.8799 92.2514 17.0356 91.4072 17.0356 90.3753V10.2439C17.0356 9.21203 17.8799 8.36775 18.9118 8.36775H21.4821C22.514 8.36775 23.3583 9.21203 23.3583 10.2439V90.3753ZM81.7073 45.91L78.0487 47.6736C70.938 51.0882 62.514 50.2439 56.2289 45.4972C48.5178 39.6998 38.2176 38.6867 29.5309 42.8518L27.8236 43.6586V11.7261L31.5759 9.9625C38.7054 6.54787 47.1294 7.39215 53.4333 12.1389C61.1257 17.9362 71.4071 18.9494 80.075 14.7843L81.726 13.9775V45.91H81.7073Z" fill="url(#paint0_linear)"/>
<defs>
<linearGradient id="paint0_linear" x1="49.3809" y1="3.18347" x2="49.3809" y2="96.9231" gradientUnits="userSpaceOnUse">
<stop stop-color="#00BEB3"/>
<stop offset="1" stop-color="#5653FF"/>
</linearGradient>
</defs>
</svg>
