<svg width="100" height="100" viewBox="0 0 90 100" fill="none" xmlns="http://www.w3.org/2000/svg">
<path d="M44.7333 46.2167C38.7833 46.2167 33.9667 41.4 33.9667 35.45C33.9667 29.5 38.7833 24.6834 44.7333 24.6834C50.6833 24.6834 55.5 29.5 55.5 35.45C55.5 41.3834 50.6833 46.2 44.7333 46.2167ZM44.7333 28.85C41.0833 28.85 38.1333 31.8 38.1333 35.45C38.1333 39.1 41.0833 42.05 44.7333 42.05C48.3833 42.05 51.3333 39.1 51.3333 35.45C51.3333 31.8167 48.3833 28.85 44.7333 28.85ZM44.7333 50.1834C49.1333 50.15 53.3667 51.9167 56.4333 55.0834C59.5667 58.2667 61.2667 62.6 61.2667 67.3167C61.2667 68.4667 60.3333 69.4 59.1833 69.4H30.2667C29.1167 69.4 28.1833 68.4667 28.1833 67.3167C28.1833 62.6 29.9 58.2667 33.0167 55.0834C36.1 51.9167 40.3333 50.15 44.7333 50.1834ZM56.9667 65.2334C56.6167 62.5167 55.3833 59.9667 53.4667 58C51.1667 55.6667 48.0167 54.35 44.7333 54.35C41.45 54.35 38.3167 55.6667 36 58C34.0833 59.9667 32.8667 62.5 32.5 65.2334H56.9667ZM3.06667 21.7667H9.31667V10.5834C9.31667 4.83335 13.9833 0.166687 19.7333 0.166687H69.7333C75.4833 0.166687 80.15 4.83335 80.15 10.5834V83.5C80.15 89.25 75.4833 93.9167 69.7333 93.9167H19.7333C13.9833 93.9167 9.31667 89.25 9.31667 83.5V72.3167H3.06667C1.91667 72.3167 0.983337 71.3834 0.983337 70.2334V62.7334C0.983337 61.5834 1.91667 60.65 3.06667 60.65H9.31667V52.8834H3.06667C1.91667 52.8834 0.983337 51.95 0.983337 50.8V43.3C0.983337 42.15 1.91667 41.2167 3.06667 41.2167H9.31667V33.45H3.06667C1.91667 33.45 0.983337 32.5167 0.983337 31.3667V23.8667C0.983337 22.7 1.91667 21.7667 3.06667 21.7667ZM13.4833 83.5C13.5 86.95 16.2833 89.7334 19.7333 89.75H69.7333C73.1833 89.7334 75.9667 86.95 75.9833 83.5V10.5834C75.9667 7.13335 73.1833 4.35002 69.7333 4.33335H19.7333C16.2833 4.35002 13.5 7.13335 13.4833 10.5834V83.5ZM5.15 64.8167V68.15H9.31667V64.8167H5.15ZM5.15 45.3834V48.7167H9.31667V45.3834H5.15ZM5.15 29.2667H9.31667V25.9334H5.15V29.2667Z" fill="url(#paint0_linear)"/>
<defs>
<linearGradient id="paint0_linear" x1="40.5667" y1="0.166687" x2="40.5667" y2="93.9167" gradientUnits="userSpaceOnUse">
<stop stop-color="#00BEB3"/>
<stop offset="1" stop-color="#5653FF"/>
</linearGradient>
</defs>
</svg>
