<svg width="100" height="90" viewBox="0 0 100 90" fill="none" xmlns="http://www.w3.org/2000/svg">
<path d="M41.015 2.63977C41.015 1.34521 39.9643 0.294556 38.6698 0.294556H14.9925C13.6979 0.294556 12.6473 1.34521 12.6473 2.63977V63.334C12.6473 64.6285 13.6979 65.6792 14.9925 65.6792H38.6698C39.9643 65.6792 41.015 64.6285 41.015 63.334V2.63977ZM17.3377 4.98499H36.3246V61.2326H17.3377V4.98499ZM78.9887 26.3171C78.9887 25.0225 77.9381 23.9719 76.6435 23.9719H55.0863C53.7917 23.9719 52.7411 25.0225 52.7411 26.3171V63.5779C52.7411 64.8724 53.7917 65.9231 55.0863 65.9231H76.6435C77.9381 65.9231 78.9887 64.8724 78.9887 63.5779V26.3171ZM57.4127 28.6623H74.2983V61.2326H57.4127V28.6623ZM91.409 72.0206H2.34708C1.05252 72.0206 0.00186157 73.0713 0.00186157 74.3659C0.00186157 75.6604 1.05252 76.7111 2.34708 76.7111H91.409C92.7036 76.7111 93.7542 75.6604 93.7542 74.3659C93.7542 73.0713 92.7036 72.0206 91.409 72.0206Z" fill="url(#paint0_linear)"/>
<defs>
<linearGradient id="paint0_linear" x1="46.878" y1="0.294556" x2="46.878" y2="76.7111" gradientUnits="userSpaceOnUse">
<stop stop-color="#00BEB3"/>
<stop offset="1" stop-color="#5653FF"/>
</linearGradient>
</defs>
</svg>
