<svg width="141" height="141" viewBox="0 0 141 141" fill="none" xmlns="http://www.w3.org/2000/svg">
<g clip-path="url(#clip0)">
<path d="M75.0558 28.5508L67.2237 27.6847L72.135 21.5444C73.4492 19.9 73.3139 17.5352 71.8175 16.0531L62.4779 6.79196C60.9817 5.30981 58.6073 5.1834 56.9621 6.5006L50.9299 11.332L50.0768 3.66848C49.8421 1.57826 48.0697 0 45.9605 0H32.7836C30.6716 0 28.8992 1.57826 28.6673 3.6682L27.7977 11.4722L21.633 6.58018C19.9821 5.27125 17.6079 5.40592 16.1172 6.89633L6.8217 16.1963C5.33377 17.6867 5.20654 20.0542 6.52896 21.6931L11.3794 27.7013L3.68528 28.5508C1.58735 28.7819 0 30.5472 0 32.6509V45.7754C0 47.8761 1.58735 49.6444 3.68555 49.8754L11.5204 50.7416L6.6091 56.8817C5.29218 58.5233 5.43015 60.8908 6.92663 62.3729L16.2635 71.6341C17.7597 73.1162 20.1341 73.2426 21.7793 71.9254L27.8142 67.094L28.6673 74.7575C28.8992 76.8447 30.6716 78.4257 32.7836 78.4257H45.9605C48.0697 78.4257 49.8421 76.8447 50.0768 74.7575L50.9437 66.9538L57.1083 71.8456C58.7593 73.1545 61.1362 73.0198 62.6241 71.5294L71.9194 62.227C73.41 60.7393 73.5373 58.3718 72.2149 56.7329L67.3644 50.7248L75.0558 49.8752C77.154 49.6441 78.7413 47.8761 78.7413 45.7752V32.6506C78.7413 30.5472 77.1537 28.7819 75.0558 28.5508ZM39.3707 51.693C32.4633 51.693 26.8426 46.0946 26.8426 39.2118C26.8426 32.332 32.4633 26.7333 39.3707 26.7333C46.2808 26.7333 51.8987 32.3317 51.8987 39.2118C51.8987 46.0943 46.2808 51.693 39.3707 51.693Z" fill="#4793FF"/>
<path d="M138.839 105.775L132.178 102.162L138.815 98.5023C140.659 97.485 141.443 95.2466 140.631 93.3051L135.609 81.316C134.798 79.3747 132.65 78.3544 130.626 78.9429L123.211 81.1042L125.328 73.7044C125.905 71.6833 124.864 69.5524 122.912 68.7548L110.84 63.8411C108.885 63.0435 106.643 63.8383 105.636 65.6862L102.008 72.3214L98.3335 65.711C97.312 63.8713 95.0648 63.0931 93.1156 63.9016L81.0788 68.9008C79.1296 69.7093 78.1055 71.8486 78.6992 73.8669L80.8665 81.2529L73.4373 79.144C71.4082 78.5665 69.2687 79.603 68.4709 81.55L63.5348 93.5747C62.7342 95.5187 63.5321 97.7515 65.3874 98.7581L72.0491 102.371L65.4124 106.028C63.5654 107.048 62.7841 109.284 63.5959 111.226L68.6149 123.217C69.4293 125.156 71.5746 126.176 73.6009 125.587L81.0163 123.426L78.8989 130.829C78.3192 132.85 79.3599 134.981 81.3146 135.776L93.3872 140.692C95.3273 141.486 97.5759 140.701 98.5912 138.847L102.219 132.209L105.893 138.819C106.915 140.659 109.162 141.44 111.109 140.629L123.148 135.63C125.094 134.821 126.121 132.682 125.528 130.666L123.358 123.28L130.79 125.389C132.819 125.964 134.958 124.927 135.756 122.983L140.692 110.958C141.49 109.012 140.692 106.779 138.839 105.775ZM106.903 113.706C100.617 116.321 93.2869 113.384 90.6289 107.035C87.9868 100.729 90.9904 93.4563 97.3236 90.8249C103.657 88.196 110.959 91.1879 113.598 97.496C116.245 103.808 113.253 111.07 106.903 113.706Z" fill="#525CDD"/>
<path d="M113.912 26.1478C110.16 22.411 105.298 20.1784 100.216 19.6378L100.699 18.9912C102.064 17.1634 101.682 14.5795 99.8473 13.2201C98.0118 11.8605 95.4179 12.2403 94.0531 14.0683L87.8416 22.3868C87.8356 22.395 87.8306 22.4039 87.8245 22.4121C86.6192 24.0523 86.7921 26.3262 88.2363 27.7646L95.0263 34.5276C96.6434 36.1387 99.2654 36.1387 100.882 34.5276C102.5 32.9169 102.5 30.3054 100.882 28.6946L100.129 27.9439C103.074 28.4206 105.863 29.7975 108.056 31.9808C112.089 35.9991 113.382 42.0257 111.348 47.3344C110.532 49.4626 111.603 51.8464 113.74 52.6588C115.877 53.4712 118.27 52.4035 119.085 50.2759C122.283 41.9332 120.252 32.4625 113.912 26.1478Z" fill="#453D81"/>
<path d="M53.9383 111.041L47.1483 104.278C45.5312 102.667 42.9092 102.667 41.2921 104.278C39.6747 105.889 39.6747 108.5 41.2921 110.111L42.0458 110.862C39.1005 110.385 36.3108 109.008 34.1187 106.825C30.0848 102.806 28.7924 96.78 30.8267 91.471C31.6421 89.3428 30.5711 86.959 28.4346 86.1466C26.2984 85.335 23.9047 86.4011 23.0893 88.5295C19.8923 96.8725 21.923 106.343 28.2628 112.658C32.0147 116.395 36.8789 118.625 41.9613 119.165L41.4763 119.814C40.1115 121.642 40.4929 124.226 42.3278 125.585C44.1633 126.945 46.7569 126.565 48.122 124.737L54.3335 116.418C55.5711 114.758 55.3709 112.468 53.9383 111.041Z" fill="#5E54AC"/>
</g>
<defs>
<clipPath id="clip0">
<rect width="141" height="141" fill="white"/>
</clipPath>
</defs>
</svg>
