<svg
   xmlns:dc="http://purl.org/dc/elements/1.1/"
   xmlns:cc="http://creativecommons.org/ns#"
   xmlns:rdf="http://www.w3.org/1999/02/22-rdf-syntax-ns#"
   xmlns:svg="http://www.w3.org/2000/svg"
   xmlns="http://www.w3.org/2000/svg"
   xmlns:sodipodi="http://sodipodi.sourceforge.net/DTD/sodipodi-0.dtd"
   xmlns:inkscape="http://www.inkscape.org/namespaces/inkscape"
   width="10.58333mm"
   height="10.583403mm"
   viewBox="0 0 10.58333 10.583403"
   version="1.1"
   id="svg2495"
   inkscape:version="1.0.2 (e86c8708, 2021-01-15)"
   sodipodi:docname="mml-white.svg">
  <defs
     id="defs2489" />
  <sodipodi:namedview
     id="base"
     pagecolor="#ffffff"
     bordercolor="#666666"
     borderopacity="1.0"
     inkscape:pageopacity="0.0"
     inkscape:pageshadow="2"
     inkscape:zoom="2.5624337"
     inkscape:cx="-21.651738"
     inkscape:cy="-12.155943"
     inkscape:document-units="mm"
     inkscape:current-layer="layer1"
     inkscape:document-rotation="0"
     showgrid="false"
     inkscape:pagecheckerboard="true"
     fit-margin-top="0"
     fit-margin-left="0"
     fit-margin-right="0"
     fit-margin-bottom="0"
     inkscape:window-width="1440"
     inkscape:window-height="775"
     inkscape:window-x="0"
     inkscape:window-y="25"
     inkscape:window-maximized="0" />
  <metadata
     id="metadata2492">
    <rdf:RDF>
      <cc:Work
         rdf:about="">
        <dc:format>image/svg+xml</dc:format>
        <dc:type
           rdf:resource="http://purl.org/dc/dcmitype/StillImage" />
        <dc:title></dc:title>
      </cc:Work>
    </rdf:RDF>
  </metadata>
  <g
     inkscape:label="Layer 1"
     inkscape:groupmode="layer"
     id="layer1"
     transform="translate(-111.88095,-30.994013)">
    <path
       id="path873-6-0-9-7"
       style="fill:#ffffff;fill-opacity:1;fill-rule:nonzero;stroke:none;stroke-width:0.245197"
       d="m 117.11887,30.994081 a 5.2916666,5.2916666 0 0 0 -5.23792,5.291667 5.2916666,5.2916666 0 0 0 5.29167,5.291667 5.2916666,5.2916666 0 0 0 5.29166,-5.291667 5.2916666,5.2916666 0 0 0 -5.29166,-5.291667 5.2916666,5.2916666 0 0 0 -0.0538,0 z m 3.90674,3.683498 h 0.74414 v 3.216341 h -0.74414 z m -8.45013,0.138491 h 0.92191 l 0.69246,1.544092 0.6904,-1.544092 h 0.92191 v 3.07785 h -0.78962 v -2.060858 l -0.5705,1.337386 h -0.54778 l -0.5705,-1.337386 v 2.060858 h -0.74828 z m 5.46943,0.692464 c 0.15297,0 0.28802,0.03445 0.40515,0.103355 0.11713,0.06752 0.20877,0.167431 0.27492,0.299722 0.14883,-0.125402 0.29352,-0.223933 0.43408,-0.29559 0.14056,-0.07166 0.27836,-0.107487 0.41341,-0.107487 0.2508,0 0.44097,0.0751 0.57051,0.225309 0.13091,0.150207 0.19637,0.366559 0.19637,0.649057 v 1.51102 h -0.74828 v -1.159621 c 0,-0.114377 -0.003,-0.210839 -0.008,-0.289388 -0.004,-0.07855 -0.0186,-0.142627 -0.0434,-0.192236 -0.0234,-0.04961 -0.0606,-0.08544 -0.11162,-0.107487 -0.051,-0.02342 -0.12265,-0.03514 -0.21497,-0.03514 -0.062,0 -0.12265,0.01103 -0.1819,0.03307 -0.0593,0.02066 -0.13161,0.05581 -0.21705,0.10542 v 1.645378 h -0.74827 v -1.159621 c 0,-0.112999 -0.003,-0.208772 -0.008,-0.287319 -0.005,-0.07993 -0.0207,-0.144696 -0.0455,-0.194305 -0.0248,-0.04961 -0.0627,-0.08544 -0.11369,-0.107487 -0.0496,-0.02342 -0.11989,-0.03514 -0.21084,-0.03514 -0.073,0 -0.144,0.01516 -0.21291,0.04547 -0.0689,0.02894 -0.13091,0.05995 -0.18603,0.09302 v 1.645378 h -0.74414 v -2.321306 h 0.74414 v 0.256315 c 0.12816,-0.100597 0.2508,-0.179147 0.36793,-0.235646 0.11714,-0.0565 0.24668,-0.08475 0.38861,-0.08475 z"
       inkscape:export-filename="/Users/spencerboyd/Desktop/mml-logo-wt3.png"
       inkscape:export-xdpi="1200.0001"
       inkscape:export-ydpi="1200.0001" />
  </g>
</svg>
