<svg width="108" height="19" viewBox="0 0 108 19" fill="none" xmlns="http://www.w3.org/2000/svg">
<path opacity="0.502" fill-rule="evenodd" clip-rule="evenodd" d="M54.7489 15.9044H53.3907L54.4419 13.196L52.35 7.68796H53.7852L55.0996 11.4367L56.4244 7.68796H57.8596L54.7489 15.9044ZM49.5349 13.5392C49.0644 13.5392 48.5816 13.3567 48.1444 13.0016V13.4024H46.7426V5.18479H48.1444V8.07674C48.5816 7.73357 49.0644 7.55113 49.5349 7.55113C51.0023 7.55113 52.0097 8.78479 52.0097 10.5452C52.0097 12.3044 51.0023 13.5392 49.5349 13.5392ZM49.2393 8.8076C48.8563 8.8076 48.4723 8.97918 48.1444 9.32235V11.768C48.4723 12.11 48.8563 12.2816 49.2393 12.2816C50.0282 12.2816 50.5756 11.5736 50.5756 10.5452C50.5756 9.51674 50.0282 8.8076 49.2393 8.8076ZM41.0675 13.0016C40.6408 13.3567 40.159 13.5392 39.6771 13.5392C38.2201 13.5392 37.2023 12.3044 37.2023 10.5452C37.2023 8.78479 38.2201 7.55113 39.6771 7.55113C40.159 7.55113 40.6408 7.73357 41.0675 8.07674V5.18479H42.4808V13.4024H41.0675V13.0016ZM41.0675 9.32235C40.7501 8.97918 40.3671 8.8076 39.9841 8.8076C39.1838 8.8076 38.6364 9.51674 38.6364 10.5452C38.6364 11.5736 39.1838 12.2816 39.9841 12.2816C40.3671 12.2816 40.7501 12.11 41.0675 11.768V9.32235ZM32.722 10.9448C32.8094 11.8136 33.4671 12.4076 34.3861 12.4076C34.8908 12.4076 35.4487 12.2132 36.0179 11.87V13.0939C35.3945 13.3904 34.7701 13.5392 34.1561 13.5392C32.5024 13.5392 31.342 12.2816 31.342 10.4995C31.342 8.77393 32.4805 7.55113 34.0468 7.55113C35.482 7.55113 36.4561 8.72832 36.4561 10.4072C36.4561 10.568 36.4561 10.7504 36.4342 10.9448H32.722ZM33.9927 8.68163C33.3131 8.68163 32.7875 9.20832 32.722 9.99674H35.1094C35.0657 9.21918 34.6171 8.68163 33.9927 8.68163ZM29.0305 9.58516V13.4024H27.6286V7.68796H29.0305V8.25918C29.4249 7.80199 29.9068 7.55113 30.3772 7.55113C30.5312 7.55113 30.6842 7.56199 30.8372 7.6076V8.91077C30.6842 8.86516 30.5094 8.84235 30.3449 8.84235C29.8849 8.84235 29.3916 9.10516 29.0305 9.58516ZM22.7768 10.9448C22.8642 11.8136 23.5209 12.4076 24.4409 12.4076C24.9446 12.4076 25.5035 12.2132 26.0728 11.87V13.0939C25.4483 13.3904 24.8239 13.5392 24.2109 13.5392C22.5572 13.5392 21.3968 12.2816 21.3968 10.4995C21.3968 8.77393 22.5353 7.55113 24.1016 7.55113C25.5358 7.55113 26.5109 8.72832 26.5109 10.4072C26.5109 10.568 26.5109 10.7504 26.4891 10.9448H22.7768ZM24.0465 8.68163C23.3679 8.68163 22.8424 9.20832 22.7768 9.99674H25.1642C25.1205 9.21918 24.6709 8.68163 24.0465 8.68163ZM17.8802 13.4024L16.7624 9.51674L15.6562 13.4024H14.3969L12.5132 7.68796H13.915L15.0213 11.5736L16.1276 7.68796H17.3973L18.5036 11.5736L19.6099 7.68796H21.0117L19.1395 13.4024H17.8802ZM9.31398 13.5392C7.66027 13.5392 6.48842 12.2936 6.48842 10.5452C6.48842 8.78479 7.66027 7.55113 9.31398 7.55113C10.9677 7.55113 12.1291 8.78479 12.1291 10.5452C12.1291 12.2936 10.9677 13.5392 9.31398 13.5392ZM9.31398 8.77393C8.49285 8.77393 7.92358 9.49393 7.92358 10.5452C7.92358 11.5964 8.49285 12.3164 9.31398 12.3164C10.1247 12.3164 10.694 11.5964 10.694 10.5452C10.694 9.49393 10.1247 8.77393 9.31398 8.77393ZM3.1581 10.5788H1.89883V13.4024H0.496971V5.53882H3.1581C4.69213 5.53882 5.78697 6.57918 5.78697 8.06479C5.78697 9.55041 4.69213 10.5788 3.1581 10.5788ZM2.96141 6.72796H1.89883V9.39077H2.96141C3.77213 9.39077 4.34141 8.85321 4.34141 8.06479C4.34141 7.26552 3.77213 6.72796 2.96141 6.72796ZM107.218 11.1414H101.433C101.565 12.5868 102.58 13.0125 103.732 13.0125C104.905 13.0125 105.829 12.754 106.634 12.3305V14.8141C105.832 15.2789 104.771 15.6134 103.359 15.6134C100.48 15.6134 98.4635 13.7325 98.4635 10.0141C98.4635 6.87348 100.174 4.38009 102.985 4.38009C105.792 4.38009 107.258 6.8724 107.258 10.0304C107.258 10.329 107.232 10.9752 107.218 11.1414ZM102.967 6.89411C102.228 6.89411 101.407 7.4762 101.407 8.86516H104.462C104.462 7.47728 103.692 6.89411 102.967 6.89411ZM93.6803 15.6134C92.6458 15.6134 92.0141 15.1584 91.5895 14.8337L91.5832 18.3229L88.6286 18.9788L88.6276 4.58534H91.2294L91.3834 5.3466C91.7914 4.94914 92.5397 4.38009 93.698 4.38009C95.7732 4.38009 97.7277 6.33049 97.7277 9.92072C97.7277 13.8389 95.794 15.6134 93.6803 15.6134ZM92.9913 7.11131C92.3138 7.11131 91.8882 7.36977 91.5801 7.72271L91.5978 12.3044C91.885 12.6291 92.2982 12.8898 92.9913 12.8898C94.0841 12.8898 94.8168 11.6485 94.8168 9.98805C94.8168 8.37538 94.0726 7.11131 92.9913 7.11131ZM84.3564 4.58534H87.3225V15.3929H84.3564V4.58534ZM84.3564 1.13411L87.3225 0.476013V2.98787L84.3564 3.64597V1.13411ZM81.1937 8.06588V15.3929H78.2401V4.58534H80.7951L80.9803 5.49647C81.6724 4.16941 83.0535 4.43873 83.4469 4.58642V7.42081C83.0712 7.29375 81.892 7.10914 81.1937 8.06588ZM74.8598 11.6018C74.8598 13.4186 76.7248 12.8529 77.1026 12.6954V15.2051C76.7092 15.4309 75.9953 15.6134 75.0295 15.6134C73.2759 15.6134 71.9593 14.2657 71.9593 12.4402L71.9729 2.54805L74.8578 1.90733L74.8598 4.58534H77.1036V7.21448H74.8598V11.6018ZM71.1767 12.1274C71.1767 14.3471 69.4835 15.6134 67.0263 15.6134C66.0074 15.6134 64.8939 15.4071 63.7949 14.914V11.97C64.7867 12.5325 66.0501 12.9549 67.0294 12.9549C67.6882 12.9549 68.1628 12.7703 68.1628 12.2002C68.1628 10.7287 63.671 11.2825 63.671 7.86932C63.671 5.68651 65.2685 4.38009 67.6653 4.38009C68.6446 4.38009 69.6229 4.53647 70.6022 4.94371V7.84868C69.703 7.34154 68.5614 7.05484 67.6632 7.05484C67.044 7.05484 66.6589 7.24163 66.6589 7.72271C66.6589 9.11059 71.1767 8.45031 71.1767 12.1274Z" fill="#232333"/>
</svg>
