<svg width="120" height="70" viewBox="0 0 120 70" fill="none" xmlns="http://www.w3.org/2000/svg">
<path d="M60 0C55.3587 0 50.9075 1.84375 47.6256 5.12563C44.3437 8.40752 42.5 12.8587 42.5 17.5C42.5 22.1413 44.3437 26.5925 47.6256 29.8744C50.9075 33.1563 55.3587 35 60 35C64.6413 35 69.0925 33.1563 72.3744 29.8744C75.6563 26.5925 77.5 22.1413 77.5 17.5C77.5 12.8587 75.6563 8.40752 72.3744 5.12563C69.0925 1.84375 64.6413 0 60 0ZM60 10C61.9891 10 63.8968 10.7902 65.3033 12.1967C66.7098 13.6032 67.5 15.5109 67.5 17.5C67.5 19.4891 66.7098 21.3968 65.3033 22.8033C63.8968 24.2098 61.9891 25 60 25C58.0109 25 56.1032 24.2098 54.6967 22.8033C53.2902 21.3968 52.5 19.4891 52.5 17.5C52.5 15.5109 53.2902 13.6032 54.6967 12.1967C56.1032 10.7902 58.0109 10 60 10ZM27.5 15C24.1848 15 21.0054 16.317 18.6612 18.6612C16.317 21.0054 15 24.1848 15 27.5C15 32.2 17.65 36.25 21.45 38.4C23.25 39.4 25.3 40 27.5 40C29.7 40 31.75 39.4 33.55 38.4C35.4 37.35 36.95 35.85 38.1 34.05C34.45 29.3 32.5 23.5 32.5 17.5C32.5 17.05 32.5 16.55 32.5 16.1C31 15.4 29.3 15 27.5 15ZM92.5 15C90.7 15 89 15.4 87.5 16.1C87.5 16.55 87.5 17.05 87.5 17.5C87.5 23.5 85.55 29.3 81.9 34.05C82.5 35 83.15 35.75 83.9 36.5C84.7 37.25 85.5 37.9 86.45 38.4C88.25 39.4 90.3 40 92.5 40C94.7 40 96.75 39.4 98.55 38.4C102.35 36.25 105 32.2 105 27.5C105 24.1848 103.683 21.0054 101.339 18.6612C98.9946 16.317 95.8152 15 92.5 15ZM60 45C48.3 45 25 50.85 25 62.5V70H95V62.5C95 50.85 71.7 45 60 45ZM23.55 47.75C13.9 48.9 0 53.8 0 62.5V70H15V60.35C15 55.3 18.45 51.1 23.55 47.75ZM96.45 47.75C101.55 51.1 105 55.3 105 60.35V70H120V62.5C120 53.8 106.1 48.9 96.45 47.75ZM60 55C67.65 55 76.2 57.5 81.15 60H38.85C43.8 57.5 52.35 55 60 55Z" fill="url(#paint0_linear)"/>
<defs>
<linearGradient id="paint0_linear" x1="60" y1="0" x2="60" y2="70" gradientUnits="userSpaceOnUse">
<stop stop-color="#00BEB3"/>
<stop offset="1" stop-color="#5653FF"/>
</linearGradient>
</defs>
</svg>
