<svg width="100" height="100" viewBox="0 0 100 100" fill="none" xmlns="http://www.w3.org/2000/svg">
<path d="M90 0H30C27.3478 0 24.8043 1.05357 22.9289 2.92893C21.0536 4.8043 20 7.34784 20 10V70C20 72.6522 21.0536 75.1957 22.9289 77.0711C24.8043 78.9464 27.3478 80 30 80H90C92.6522 80 95.1957 78.9464 97.0711 77.0711C98.9464 75.1957 100 72.6522 100 70V10C100 7.34784 98.9464 4.8043 97.0711 2.92893C95.1957 1.05357 92.6522 0 90 0ZM90 70H30V10H90V70ZM70 90V100H10C7.34784 100 4.8043 98.9464 2.92893 97.0711C1.05357 95.1957 0 92.6522 0 90V25H10V90H70ZM82.65 30.3L77.35 25L52.95 49.4L42.35 38.8L37.05 44.1L52.95 60L82.65 30.3Z" fill="url(#paint0_linear)"/>
<defs>
<linearGradient id="paint0_linear" x1="50" y1="0" x2="50" y2="100" gradientUnits="userSpaceOnUse">
<stop stop-color="#00BEB3"/>
<stop offset="1" stop-color="#5653FF"/>
</linearGradient>
</defs>
</svg>
