<svg width="" height="" viewBox="0 0 1000 800" fill="none" xmlns="http://www.w3.org/2000/svg">
<path d="M1 805C1 805 699.933 826.966 815.591 561.666C871 434.569 849.5 -35.0067 849.5 -35.0067" stroke="white" stroke-width="5"/>
<path d="M36 805C36 805 734.933 826.966 850.591 561.666C906 434.569 884.5 -35.0067 884.5 -35.0067" stroke="white" stroke-width="5"/>
<path d="M71 805C71 805 769.933 826.966 885.591 561.666C941 434.569 919.5 -35.0067 919.5 -35.0067" stroke="white" stroke-width="5"/>
<path d="M106 805C106 805 804.933 826.966 920.591 561.666C976 434.569 954.5 -35.0067 954.5 -35.0067" stroke="white" stroke-width="5"/>
<path d="M141 804.708C141 804.708 839.933 826.674 955.591 561.374C1011 434.277 989.5 -35.2984 989.5 -35.2984" stroke="white" stroke-width="5"/>
</svg>