<svg width="20" height="20" viewBox="0 0 20 20" fill="none" xmlns="http://www.w3.org/2000/svg">
<path d="M13.5286 20H3.11203C1.84784 20 0.820312 18.9725 0.820312 17.7083V6.45828C0.820312 5.19409 1.84784 4.16672 3.11203 4.16672H3.52859C3.8736 4.16672 4.15359 4.44672 4.15359 4.79172C4.15359 5.13672 3.8736 5.41672 3.52859 5.41672H3.11203C2.53784 5.41672 2.07031 5.88409 2.07031 6.45828V17.7083C2.07031 18.2825 2.53784 18.75 3.11203 18.75H13.5286C14.1028 18.75 14.5703 18.2825 14.5703 17.7083V17.2917C14.5703 16.9467 14.8503 16.6667 15.1953 16.6667C15.5403 16.6667 15.8203 16.9467 15.8203 17.2917V17.7083C15.8203 18.9725 14.7928 20 13.5286 20Z" fill="black"/>
<path d="M16.862 15H8.11203C6.84784 15 5.82031 13.9725 5.82031 12.7083V2.29172C5.82031 1.02753 6.84784 0 8.11203 0H16.862C18.1262 0 19.1536 1.02753 19.1536 2.29172V12.7083C19.1536 13.9725 18.1262 15 16.862 15ZM8.11203 1.25C7.53784 1.25 7.07031 1.71753 7.07031 2.29172V12.7083C7.07031 13.2825 7.53784 13.75 8.11203 13.75H16.862C17.4362 13.75 17.9036 13.2825 17.9036 12.7083V2.29172C17.9036 1.71753 17.4362 1.25 16.862 1.25H8.11203Z" fill="black"/>
</svg>
