<svg width="321" height="225" viewBox="0 0 321 225" fill="none" xmlns="http://www.w3.org/2000/svg">
<path d="M262.09 141.108H55.4211C54.0103 141.106 52.6578 140.545 51.6602 139.548C50.6626 138.55 50.1015 137.198 50.0999 135.787V8.35086C50.1011 7.3173 50.5122 6.3264 51.243 5.59555C51.9738 4.8647 52.9647 4.45358 53.9982 4.45239H263.445C264.496 4.45359 265.504 4.87181 266.248 5.61529C266.991 6.35878 267.41 7.36682 267.411 8.41826V135.787C267.409 137.198 266.848 138.55 265.85 139.548C264.853 140.545 263.5 141.106 262.09 141.108Z" fill="#F2F2F2"/>
<path d="M254.55 133.572H61.9409C59.1174 133.572 56.8204 131.421 56.8204 128.777V17.8044C56.8204 15.8436 58.5225 14.2483 60.6148 14.2483H255.814C257.941 14.2483 259.671 15.8699 259.671 17.863V128.777C259.671 131.421 257.374 133.572 254.55 133.572Z" fill="white"/>
<path d="M267.337 8.04636H50.0252V5.33726C50.0273 3.92179 50.5907 2.56492 51.5919 1.56434C52.5931 0.563756 53.9503 0.00116942 55.3658 0H261.996C263.412 0.0011626 264.769 0.563747 265.77 1.56433C266.771 2.56492 267.335 3.92179 267.337 5.33726V8.04636Z" fill="#CCCCCC"/>
<path d="M59.7309 5.41268C60.4938 5.41268 61.1123 4.79421 61.1123 4.03129C61.1123 3.26837 60.4938 2.6499 59.7309 2.6499C58.968 2.6499 58.3495 3.26837 58.3495 4.03129C58.3495 4.79421 58.968 5.41268 59.7309 5.41268Z" fill="white"/>
<path d="M64.9743 5.41268C65.7372 5.41268 66.3557 4.79421 66.3557 4.03129C66.3557 3.26837 65.7372 2.6499 64.9743 2.6499C64.2114 2.6499 63.5929 3.26837 63.5929 4.03129C63.5929 4.79421 64.2114 5.41268 64.9743 5.41268Z" fill="white"/>
<path d="M70.2177 5.41268C70.9807 5.41268 71.5991 4.79421 71.5991 4.03129C71.5991 3.26837 70.9807 2.6499 70.2177 2.6499C69.4548 2.6499 68.8363 3.26837 68.8363 4.03129C68.8363 4.79421 69.4548 5.41268 70.2177 5.41268Z" fill="white"/>
<path d="M233.35 114.96H84.086C82.5897 114.959 81.1552 114.363 80.0972 113.305C79.0391 112.247 78.444 110.813 78.4423 109.317V37.3501C78.4435 36.2311 78.8886 35.1582 79.6799 34.3669C80.4712 33.5756 81.544 33.1304 82.6631 33.1292H234.705C235.842 33.1305 236.932 33.5827 237.736 34.3866C238.54 35.1906 238.992 36.2806 238.994 37.4175V109.317C238.992 110.813 238.397 112.247 237.339 113.305C236.281 114.363 234.846 114.959 233.35 114.96ZM82.6631 33.7741C81.715 33.7752 80.8061 34.1523 80.1358 34.8227C79.4654 35.4931 79.0883 36.4021 79.0873 37.3501V109.317C79.0888 110.642 79.6159 111.912 80.553 112.85C81.4901 113.787 82.7607 114.314 84.086 114.315H233.35C234.675 114.314 235.946 113.787 236.883 112.849C237.82 111.912 238.347 110.642 238.349 109.317V37.4175C238.348 36.4516 237.963 35.5255 237.28 34.8425C236.597 34.1595 235.671 33.7752 234.705 33.7741H82.6631Z" fill="#CCCCCC"/>
<path d="M89.246 109.316H228.19C229.559 109.316 230.871 108.773 231.839 107.805C232.806 106.837 233.35 105.525 233.35 104.157V43.9954C233.35 42.6269 232.806 41.3144 231.839 40.3468C230.871 39.3791 229.559 38.8354 228.19 38.8354H89.246C87.8775 38.8354 86.565 39.3791 85.5973 40.3468C84.6297 41.3144 84.086 42.6269 84.086 43.9954V104.157C84.086 105.525 84.6297 106.837 85.5973 107.805C86.565 108.773 87.8775 109.316 89.246 109.316Z" fill="#F2F2F2"/>
<path d="M105.022 56.3386C106.625 56.3386 107.925 55.0392 107.925 53.4362C107.925 51.8332 106.625 50.5337 105.022 50.5337C103.419 50.5337 102.12 51.8332 102.12 53.4362C102.12 55.0392 103.419 56.3386 105.022 56.3386Z" fill="#CCCCCC"/>
<path d="M105.022 67.3035C106.625 67.3035 107.925 66.004 107.925 64.401C107.925 62.798 106.625 61.4985 105.022 61.4985C103.419 61.4985 102.12 62.798 102.12 64.401C102.12 66.004 103.419 67.3035 105.022 67.3035Z" fill="#CCCCCC"/>
<path d="M105.022 78.2683C106.625 78.2683 107.925 76.9688 107.925 75.3659C107.925 73.7629 106.625 72.4634 105.022 72.4634C103.419 72.4634 102.12 73.7629 102.12 75.3659C102.12 76.9688 103.419 78.2683 105.022 78.2683Z" fill="#CCCCCC"/>
<path d="M105.022 89.2332C106.625 89.2332 107.925 87.9337 107.925 86.3307C107.925 84.7277 106.625 83.4282 105.022 83.4282C103.419 83.4282 102.12 84.7277 102.12 86.3307C102.12 87.9337 103.419 89.2332 105.022 89.2332Z" fill="#CCCCCC"/>
<path d="M214.994 53.7585H119.535C119.449 53.7585 119.367 53.7245 119.307 53.6641C119.246 53.6036 119.212 53.5216 119.212 53.436C119.212 53.3505 119.246 53.2685 119.307 53.208C119.367 53.1475 119.449 53.1135 119.535 53.1135H214.994C215.079 53.1135 215.161 53.1475 215.222 53.208C215.282 53.2685 215.316 53.3505 215.316 53.436C215.316 53.5216 215.282 53.6036 215.222 53.6641C215.161 53.7245 215.079 53.7585 214.994 53.7585Z" fill="#CCCCCC"/>
<path d="M214.994 64.7236H119.535C119.449 64.7236 119.367 64.6896 119.307 64.6292C119.246 64.5687 119.212 64.4866 119.212 64.4011C119.212 64.3156 119.246 64.2336 119.307 64.1731C119.367 64.1126 119.449 64.0786 119.535 64.0786H214.994C215.079 64.0786 215.161 64.1126 215.222 64.1731C215.282 64.2336 215.316 64.3156 215.316 64.4011C215.316 64.4866 215.282 64.5687 215.222 64.6292C215.161 64.6896 215.079 64.7236 214.994 64.7236Z" fill="#CCCCCC"/>
<path d="M214.994 75.6884H119.535C119.449 75.6884 119.367 75.6545 119.307 75.594C119.246 75.5335 119.212 75.4515 119.212 75.3659C119.212 75.2804 119.246 75.1984 119.307 75.1379C119.367 75.0774 119.449 75.0435 119.535 75.0435H214.994C215.079 75.0435 215.161 75.0774 215.222 75.1379C215.282 75.1984 215.316 75.2804 215.316 75.3659C215.316 75.4515 215.282 75.5335 215.222 75.594C215.161 75.6545 215.079 75.6884 214.994 75.6884Z" fill="#CCCCCC"/>
<path d="M214.994 86.6533H119.535C119.449 86.6533 119.367 86.6193 119.307 86.5588C119.246 86.4984 119.212 86.4163 119.212 86.3308C119.212 86.2453 119.246 86.1632 119.307 86.1028C119.367 86.0423 119.449 86.0083 119.535 86.0083H214.994C215.079 86.0083 215.161 86.0423 215.222 86.1028C215.282 86.1632 215.316 86.2453 215.316 86.3308C215.316 86.4163 215.282 86.4984 215.222 86.5588C215.161 86.6193 215.079 86.6533 214.994 86.6533Z" fill="#CCCCCC"/>
<path d="M137.594 97.6182H128.242C127.815 97.6177 127.405 97.4476 127.102 97.1453C126.8 96.8431 126.63 96.4332 126.63 96.0057V87.2983C126.63 86.8708 126.8 86.4609 127.102 86.1586C127.405 85.8563 127.815 85.6863 128.242 85.6858H137.594C138.022 85.6863 138.432 85.8563 138.734 86.1586C139.036 86.4609 139.206 86.8708 139.207 87.2983V96.0057C139.206 96.4332 139.036 96.8431 138.734 97.1453C138.432 97.4476 138.022 97.6177 137.594 97.6182Z" fill="#00BEB3"/>
<path d="M158.557 97.6182H149.204C148.777 97.6177 148.367 97.4477 148.065 97.1454C147.762 96.8431 147.592 96.4332 147.592 96.0057V76.3334C147.592 75.9059 147.762 75.4961 148.065 75.1938C148.367 74.8915 148.777 74.7214 149.204 74.7209H158.557C158.984 74.7214 159.394 74.8915 159.696 75.1938C159.999 75.4961 160.169 75.9059 160.169 76.3334V96.0057C160.169 96.4332 159.999 96.8431 159.696 97.1454C159.394 97.4477 158.984 97.6177 158.557 97.6182Z" fill="#00BEB3"/>
<path d="M179.842 97.6183H170.489C170.062 97.6178 169.652 97.4478 169.349 97.1455C169.047 96.8432 168.877 96.4333 168.877 96.0058V65.3686C168.877 64.9411 169.047 64.5312 169.349 64.2289C169.652 63.9266 170.062 63.7566 170.489 63.7561H179.842C180.269 63.7566 180.679 63.9266 180.981 64.2289C181.283 64.5312 181.454 64.9411 181.454 65.3686V96.0058C181.454 96.4333 181.283 96.8432 180.981 97.1455C180.679 97.4478 180.269 97.6178 179.842 97.6183Z" fill="#00BEB3"/>
<path d="M201.771 97.6181H192.419C191.991 97.6176 191.582 97.4476 191.279 97.1453C190.977 96.843 190.807 96.4331 190.806 96.0056V54.726C190.807 54.2985 190.977 53.8886 191.279 53.5864C191.582 53.2841 191.991 53.114 192.419 53.1135H201.771C202.199 53.114 202.609 53.2841 202.911 53.5864C203.213 53.8886 203.383 54.2985 203.384 54.726V96.0056C203.383 96.4331 203.213 96.843 202.911 97.1453C202.609 97.4476 202.199 97.6176 201.771 97.6181Z" fill="#00BEB3"/>
<path d="M214.994 97.6181H119.535C119.449 97.6181 119.367 97.5842 119.307 97.5237C119.246 97.4632 119.212 97.3812 119.212 97.2956C119.212 97.2101 119.246 97.1281 119.307 97.0676C119.367 97.0071 119.449 96.9731 119.535 96.9731H214.994C215.079 96.9731 215.161 97.0071 215.222 97.0676C215.282 97.1281 215.316 97.2101 215.316 97.2956C215.316 97.3812 215.282 97.4632 215.222 97.5237C215.161 97.5842 215.079 97.6181 214.994 97.6181Z" fill="#3F3D56"/>
<path d="M256.934 157.779C257.195 157.384 257.54 157.05 257.944 156.802C258.348 156.554 258.802 156.398 259.273 156.345C259.744 156.291 260.221 156.341 260.671 156.492C261.12 156.643 261.531 156.89 261.875 157.217L272.115 151.932L271.479 157.886L261.851 161.992C261.264 162.533 260.499 162.84 259.701 162.854C258.903 162.868 258.127 162.589 257.521 162.07C256.915 161.551 256.52 160.827 256.412 160.036C256.304 159.245 256.489 158.442 256.934 157.779Z" fill="#FFB8B8"/>
<path d="M265.745 160C265.513 159.818 265.341 159.569 265.254 159.287L264.439 156.655C264.352 156.37 264.354 156.065 264.446 155.781C264.537 155.497 264.714 155.249 264.951 155.068L273.251 148.799L282.241 132.122C282.618 131.637 283.086 131.231 283.619 130.927C284.153 130.623 284.741 130.427 285.35 130.35C285.959 130.274 286.578 130.318 287.17 130.48C287.762 130.642 288.316 130.92 288.801 131.296C289.286 131.673 289.692 132.141 289.996 132.675C290.3 133.208 290.496 133.796 290.572 134.405C290.649 135.015 290.605 135.633 290.443 136.225C290.28 136.817 290.003 137.371 289.626 137.856L284.512 148.65C282.96 151.927 280.271 154.528 276.945 155.97L267.218 160.189C267.031 160.27 266.829 160.311 266.625 160.309C266.421 160.306 266.22 160.261 266.035 160.176C265.932 160.129 265.834 160.07 265.745 160Z" fill="#3F3D56"/>
<path d="M289.852 125.162C294.227 125.162 297.773 121.615 297.773 117.241C297.773 112.866 294.227 109.32 289.852 109.32C285.478 109.32 281.931 112.866 281.931 117.241C281.931 121.615 285.478 125.162 289.852 125.162Z" fill="#FFB8B8"/>
<path d="M286.639 221.148L282.686 221.148L280.805 205.897L286.641 205.898L286.639 221.148Z" fill="#FFB8B8"/>
<path d="M279.861 220.018H287.486V224.819H275.06C275.06 224.189 275.185 223.564 275.426 222.982C275.667 222.399 276.021 221.87 276.467 221.424C276.912 220.978 277.442 220.625 278.024 220.384C278.607 220.142 279.231 220.018 279.861 220.018Z" fill="#2F2E41"/>
<path d="M299.539 221.148L295.586 221.148L293.705 205.897L299.541 205.898L299.539 221.148Z" fill="#FFB8B8"/>
<path d="M292.761 220.019H300.386V224.82H287.96C287.96 224.189 288.084 223.565 288.326 222.982C288.567 222.4 288.921 221.871 289.366 221.425C289.812 220.979 290.341 220.625 290.924 220.384C291.506 220.143 292.131 220.019 292.761 220.019Z" fill="#2F2E41"/>
<path d="M299.828 217.279L295.195 217.279C294.876 217.278 294.566 217.173 294.313 216.979C294.059 216.785 293.877 216.513 293.794 216.205L287.124 191.469C287.114 191.431 287.09 191.397 287.056 191.376C287.023 191.354 286.982 191.346 286.943 191.352C286.903 191.358 286.868 191.379 286.843 191.41C286.818 191.442 286.805 191.481 286.808 191.521L288.155 214.98C288.167 215.187 288.134 215.395 288.059 215.589C287.984 215.782 287.868 215.957 287.719 216.102C287.57 216.247 287.392 216.359 287.196 216.429C287.001 216.499 286.793 216.526 286.586 216.509L281.378 216.075C281.044 216.046 280.731 215.904 280.49 215.671C280.249 215.438 280.096 215.129 280.057 214.797L275.313 165.537L277.148 166.638L294.347 163.718L301.267 215.636C301.294 215.841 301.277 216.049 301.217 216.247C301.158 216.445 301.056 216.628 300.92 216.784C300.784 216.939 300.616 217.064 300.428 217.149C300.239 217.235 300.035 217.279 299.828 217.279H299.828Z" fill="#2F2E41"/>
<path d="M281.065 170.736C279.167 170.721 277.309 170.198 275.682 169.221C275.431 169.073 275.231 168.852 275.108 168.588C274.985 168.324 274.945 168.028 274.993 167.741C275.598 164.037 278.761 145.035 281.639 134.676C282.811 130.457 285.403 128.184 289.342 127.922C295.105 127.544 300.227 132.052 300.76 137.983C301.701 148.448 297.879 163.316 296.192 169.222C296.127 169.45 296.006 169.659 295.841 169.83C295.677 170 295.473 170.128 295.247 170.202C295.021 170.275 294.781 170.292 294.547 170.251C294.314 170.21 294.093 170.112 293.906 169.966L290.468 167.291C290.256 167.13 289.995 167.047 289.729 167.058C289.463 167.069 289.209 167.173 289.012 167.352C286.114 169.937 283.361 170.736 281.065 170.736Z" fill="#3F3D56"/>
<path opacity="0.2" d="M292.436 143.104L295.338 155.359L291.145 165.679L294.048 155.682L292.436 143.104Z" fill="black"/>
<path d="M294.372 123.755C295.077 123.768 295.777 123.641 296.432 123.382C296.72 123.271 297.02 123.18 297.308 123.068C299.85 122.087 301.524 119.38 301.584 116.655C301.644 113.931 300.234 111.287 298.139 109.544C296.044 107.801 293.33 106.907 290.613 106.7C287.687 106.477 284.391 107.219 282.755 109.656C282.32 110.305 282.016 111.092 282.274 111.875C282.351 112.112 282.489 112.324 282.674 112.49C283.404 113.14 284.132 112.651 284.877 112.608C285.9 112.549 286.819 113.377 287.149 114.348C287.48 115.318 287.334 116.386 287.068 117.376C286.864 117.972 286.736 118.59 286.686 119.218C286.665 119.532 286.724 119.847 286.858 120.132C286.992 120.418 287.197 120.664 287.453 120.848C288.093 121.234 288.932 121.011 289.572 120.625C290.212 120.239 290.765 119.702 291.456 119.418C292.147 119.134 293.076 119.197 293.478 119.827C293.606 120.056 293.693 120.306 293.734 120.565C294.094 122.208 294.011 122.112 294.372 123.755Z" fill="#2F2E41"/>
<path d="M282.095 210.085L232.496 192.811C231.645 192.514 230.947 191.891 230.554 191.079C230.162 190.268 230.108 189.333 230.403 188.482L243.292 151.472C243.51 150.849 243.966 150.337 244.561 150.05C245.156 149.762 245.84 149.723 246.464 149.939L297.739 167.796C298.374 168.018 298.894 168.482 299.187 169.087C299.479 169.692 299.52 170.388 299.299 171.023L286.425 207.992C286.127 208.843 285.504 209.541 284.693 209.933C283.881 210.326 282.947 210.38 282.095 210.085Z" fill="#E6E6E6"/>
<path d="M236.729 190.685L280.099 205.789C280.925 206.076 281.832 206.024 282.619 205.644C283.406 205.263 284.01 204.585 284.298 203.759L294.705 173.875C294.993 173.049 294.941 172.142 294.56 171.355C294.18 170.568 293.502 169.964 292.676 169.676L249.305 154.572C248.479 154.284 247.573 154.336 246.786 154.717C245.998 155.098 245.394 155.776 245.107 156.601L234.699 186.486C234.557 186.895 234.496 187.328 234.521 187.76C234.546 188.193 234.656 188.616 234.844 189.006C235.033 189.396 235.296 189.745 235.62 190.033C235.943 190.321 236.32 190.542 236.729 190.685Z" fill="white"/>
<path d="M247.62 169.688L245.472 168.94C245.355 168.899 245.26 168.814 245.206 168.703C245.152 168.592 245.145 168.464 245.185 168.347L245.933 166.2C245.974 166.083 246.059 165.988 246.17 165.934C246.281 165.88 246.409 165.873 246.526 165.913L248.674 166.661C248.79 166.702 248.886 166.787 248.939 166.898C248.993 167.009 249 167.137 248.96 167.254L248.212 169.402C248.171 169.518 248.086 169.614 247.975 169.667C247.864 169.721 247.736 169.728 247.62 169.688Z" fill="#5653FF"/>
<path d="M245.681 175.253L243.534 174.505C243.417 174.464 243.322 174.379 243.268 174.268C243.214 174.157 243.207 174.029 243.247 173.913L243.995 171.765C244.036 171.648 244.121 171.553 244.232 171.499C244.343 171.445 244.471 171.438 244.588 171.478L246.736 172.226C246.852 172.267 246.948 172.352 247.001 172.463C247.055 172.574 247.062 172.702 247.022 172.819L246.274 174.967C246.233 175.083 246.148 175.179 246.037 175.232C245.926 175.286 245.798 175.293 245.681 175.253Z" fill="#3F3D56"/>
<path d="M243.743 180.818L241.596 180.07C241.479 180.029 241.384 179.944 241.33 179.833C241.276 179.722 241.269 179.594 241.309 179.478L242.057 177.33C242.098 177.213 242.183 177.118 242.294 177.064C242.405 177.01 242.533 177.003 242.65 177.043L244.798 177.791C244.914 177.832 245.01 177.917 245.063 178.028C245.117 178.139 245.124 178.267 245.084 178.384L244.336 180.532C244.295 180.648 244.21 180.744 244.099 180.797C243.988 180.851 243.86 180.858 243.743 180.818Z" fill="#CCCCCC"/>
<path d="M262.053 173.51L251.704 169.906C251.646 169.886 251.592 169.855 251.547 169.814C251.501 169.774 251.464 169.724 251.437 169.669C251.41 169.614 251.395 169.554 251.391 169.493C251.387 169.432 251.396 169.371 251.416 169.313C251.436 169.255 251.468 169.202 251.508 169.156C251.549 169.111 251.598 169.074 251.654 169.047C251.709 169.021 251.769 169.005 251.83 169.002C251.891 168.998 251.952 169.007 252.01 169.027L262.359 172.631C262.417 172.651 262.47 172.683 262.516 172.723C262.561 172.764 262.599 172.813 262.625 172.868C262.652 172.923 262.668 172.983 262.671 173.044C262.675 173.105 262.666 173.166 262.646 173.224C262.626 173.282 262.595 173.335 262.554 173.381C262.513 173.427 262.464 173.464 262.409 173.49C262.354 173.517 262.294 173.532 262.233 173.536C262.172 173.539 262.11 173.53 262.053 173.51Z" fill="#CCCCCC"/>
<path d="M260.115 179.075L249.766 175.471C249.649 175.43 249.553 175.345 249.5 175.234C249.446 175.123 249.439 174.995 249.479 174.879C249.52 174.762 249.605 174.666 249.716 174.613C249.827 174.559 249.955 174.552 250.072 174.592L260.421 178.196C260.478 178.216 260.532 178.248 260.577 178.288C260.623 178.329 260.661 178.378 260.687 178.433C260.714 178.488 260.729 178.548 260.733 178.609C260.737 178.67 260.728 178.731 260.708 178.789C260.688 178.847 260.656 178.9 260.616 178.946C260.575 178.991 260.526 179.029 260.471 179.055C260.415 179.082 260.356 179.097 260.295 179.101C260.233 179.104 260.172 179.095 260.115 179.075Z" fill="#CCCCCC"/>
<path d="M258.177 184.64L247.827 181.036C247.711 180.995 247.615 180.91 247.562 180.799C247.508 180.688 247.501 180.56 247.541 180.444C247.582 180.327 247.667 180.231 247.778 180.178C247.889 180.124 248.017 180.117 248.133 180.157L258.483 183.761C258.599 183.802 258.695 183.887 258.748 183.998C258.802 184.109 258.809 184.237 258.769 184.354C258.728 184.47 258.643 184.566 258.532 184.62C258.421 184.673 258.293 184.681 258.177 184.64Z" fill="#CCCCCC"/>
<path d="M285.717 187.655C285.793 187.474 285.864 187.291 285.929 187.103C286.78 184.661 286.625 181.98 285.5 179.652C284.374 177.323 282.369 175.537 279.927 174.687L276.525 184.454L285.717 187.655Z" fill="#5653FF"/>
<path d="M275.536 185.048L278.938 175.281C277.14 174.655 275.198 174.568 273.352 175.033C271.506 175.497 269.836 176.491 268.548 177.893C267.261 179.295 266.411 181.043 266.105 182.922C265.799 184.8 266.049 186.728 266.826 188.466C267.602 190.204 268.869 191.677 270.473 192.703C272.076 193.73 273.944 194.264 275.848 194.241C277.751 194.218 279.606 193.639 281.184 192.574C282.762 191.509 283.994 190.006 284.728 188.25L275.536 185.048Z" fill="#3F3D56"/>
<path d="M287.714 171.037C287.676 170.565 287.741 170.089 287.906 169.645C288.071 169.2 288.332 168.798 288.669 168.465C289.007 168.132 289.413 167.877 289.86 167.718C290.307 167.559 290.783 167.501 291.255 167.546L296.051 157.067L299.225 162.145L294.184 171.318C294.055 172.106 293.642 172.819 293.023 173.323C292.404 173.826 291.622 174.086 290.824 174.051C290.027 174.016 289.27 173.69 288.696 173.135C288.123 172.58 287.774 171.833 287.714 171.037Z" fill="#FFB8B8"/>
<path d="M296.018 167.347C295.723 167.347 295.434 167.257 295.191 167.089L292.927 165.521C292.682 165.351 292.495 165.109 292.392 164.83C292.289 164.55 292.274 164.245 292.35 163.956L295.012 153.901L291.794 135.231C291.79 134.616 291.908 134.007 292.139 133.438C292.371 132.869 292.713 132.351 293.145 131.915C293.577 131.478 294.091 131.13 294.658 130.892C295.224 130.654 295.832 130.53 296.446 130.527C297.061 130.524 297.67 130.643 298.238 130.875C298.807 131.108 299.324 131.45 299.761 131.883C300.197 132.315 300.544 132.83 300.781 133.396C301.018 133.963 301.142 134.571 301.144 135.185L303.781 146.835C304.582 150.371 304.071 154.077 302.344 157.264L297.294 166.587C297.196 166.766 297.062 166.923 296.901 167.047C296.739 167.171 296.553 167.26 296.355 167.307C296.244 167.334 296.131 167.347 296.018 167.347Z" fill="#3F3D56"/>
<path d="M158.198 220.988L162.152 220.987L164.033 205.737H158.197L158.198 220.988Z" fill="#A0616A"/>
<path d="M157.19 219.697L164.976 219.696H164.976C165.628 219.696 166.273 219.825 166.875 220.074C167.477 220.323 168.024 220.689 168.485 221.15C168.946 221.61 169.311 222.157 169.561 222.759C169.81 223.361 169.938 224.007 169.938 224.658V224.82L157.19 224.82L157.19 219.697Z" fill="#2F2E41"/>
<path d="M142.396 220.988L146.349 220.987L148.23 205.737H142.395L142.396 220.988Z" fill="#A0616A"/>
<path d="M141.387 219.697L149.173 219.696H149.174C149.825 219.696 150.471 219.825 151.073 220.074C151.675 220.323 152.222 220.689 152.683 221.15C153.143 221.61 153.509 222.157 153.758 222.759C154.008 223.361 154.136 224.007 154.136 224.658V224.82L141.387 224.82L141.387 219.697Z" fill="#2F2E41"/>
<path d="M158.987 115.408C163.362 115.408 166.908 111.862 166.908 107.487C166.908 103.113 163.362 99.5664 158.987 99.5664C154.613 99.5664 151.066 103.113 151.066 107.487C151.066 111.862 154.613 115.408 158.987 115.408Z" fill="#A0616A"/>
<path d="M164.314 217.696H156.977C156.785 217.696 156.594 217.658 156.417 217.584C156.24 217.51 156.079 217.401 155.944 217.265C155.809 217.128 155.703 216.966 155.631 216.788C155.559 216.61 155.523 216.419 155.526 216.227L155.952 181.387C155.953 181.264 155.908 181.144 155.824 181.053C155.74 180.962 155.624 180.907 155.5 180.899C155.377 180.89 155.255 180.93 155.16 181.009C155.064 181.088 155.003 181.2 154.988 181.323L150.718 216.42C150.675 216.772 150.504 217.096 150.239 217.331C149.974 217.566 149.632 217.696 149.277 217.696H141.87C141.67 217.696 141.472 217.655 141.288 217.575C141.105 217.494 140.94 217.377 140.804 217.23C140.668 217.083 140.564 216.91 140.499 216.721C140.433 216.532 140.407 216.331 140.423 216.132L145.314 153.543L145.447 153.529L168.87 150.999L165.763 216.314C165.746 216.686 165.586 217.038 165.316 217.296C165.046 217.553 164.687 217.696 164.314 217.696Z" fill="#2F2E41"/>
<path d="M145.6 157.385C145.223 157.384 144.862 157.237 144.592 156.975C144.322 156.713 144.165 156.356 144.153 155.98C144.026 152.022 143.806 138.329 146.354 128.276C147.049 125.529 148.609 123.079 150.804 121.288C152.999 119.497 155.712 118.46 158.542 118.33C161.327 118.178 164.09 118.907 166.437 120.413C168.785 121.92 170.599 124.127 171.622 126.723C175.903 137.592 179.948 150.989 174.905 153.09C168.295 155.844 150.871 157.072 145.689 157.382C145.659 157.384 145.629 157.385 145.6 157.385Z" fill="#3F3D56"/>
<path d="M175.873 99.4815C175.997 99.6094 176.132 99.7273 176.275 99.8341L175.443 115.806L171.984 117.577L173.975 123.146L180.402 120.606C180.921 120.401 181.36 120.033 181.652 119.557C181.944 119.081 182.074 118.524 182.023 117.968L180.339 99.85C180.89 99.4389 181.303 98.8698 181.522 98.2184C181.742 97.567 181.758 96.8642 181.569 96.2034C181.379 95.5426 180.993 94.9551 180.461 94.5192C179.93 94.0832 179.278 93.8195 178.593 93.7629C177.908 93.7064 177.222 93.8598 176.626 94.2027C176.03 94.5456 175.553 95.0618 175.257 95.6826C174.962 96.3034 174.863 96.9994 174.973 97.678C175.083 98.3566 175.397 98.9857 175.873 99.4815Z" fill="#A0616A"/>
<path d="M175.509 116.401L177.942 123.315C178.011 123.511 178.037 123.721 178.018 123.928C177.999 124.136 177.935 124.337 177.832 124.518C177.728 124.699 177.586 124.855 177.417 124.977C177.247 125.098 177.053 125.181 176.849 125.221L169.675 126.61C168.666 126.959 167.56 126.893 166.6 126.428C165.64 125.963 164.903 125.135 164.552 124.128C164.201 123.12 164.264 122.014 164.726 121.053C165.189 120.091 166.015 119.353 167.021 118.999L173.463 115.599C173.647 115.501 173.85 115.445 174.059 115.433C174.267 115.422 174.475 115.455 174.669 115.531C174.863 115.607 175.039 115.724 175.184 115.874C175.329 116.024 175.439 116.204 175.509 116.401V116.401Z" fill="#3F3D56"/>
<path d="M141.563 99.4815C141.439 99.6094 141.305 99.7273 141.162 99.8341L141.993 115.806L145.452 117.577L143.461 123.146L137.034 120.606C136.515 120.401 136.076 120.033 135.784 119.557C135.492 119.081 135.362 118.524 135.413 117.968L137.097 99.85C136.546 99.4389 136.133 98.8698 135.914 98.2184C135.694 97.567 135.678 96.8642 135.868 96.2034C136.057 95.5426 136.443 94.9551 136.975 94.5192C137.506 94.0832 138.158 93.8195 138.843 93.7629C139.528 93.7064 140.214 93.8598 140.81 94.2027C141.406 94.5456 141.883 95.0618 142.179 95.6826C142.474 96.3034 142.573 96.9994 142.463 97.678C142.353 98.3566 142.039 98.9857 141.563 99.4815H141.563Z" fill="#A0616A"/>
<path d="M142.767 115.531C142.961 115.455 143.169 115.422 143.377 115.433C143.586 115.445 143.789 115.501 143.973 115.599L150.415 118.999C151.421 119.353 152.247 120.091 152.71 121.053C153.172 122.014 153.235 123.12 152.884 124.128C152.533 125.135 151.796 125.962 150.836 126.428C149.876 126.893 148.77 126.959 147.761 126.61L140.587 125.221C140.383 125.181 140.189 125.098 140.019 124.977C139.85 124.855 139.708 124.699 139.604 124.518C139.501 124.337 139.437 124.136 139.418 123.928C139.399 123.721 139.425 123.511 139.494 123.315L141.927 116.401C141.997 116.204 142.107 116.024 142.252 115.874C142.397 115.724 142.573 115.607 142.767 115.531Z" fill="#3F3D56"/>
<path d="M162.064 108.837C162.022 107.827 162.276 106.826 162.793 105.958C163.311 105.089 164.071 104.39 164.979 103.946C167.387 102.703 168.899 100.052 168.237 97.6307C167.388 94.5319 163.171 92.5221 159.753 93.5883C158.828 93.9166 157.936 94.3312 157.089 94.8265L154.857 96.0232C153.903 96.5007 152.983 97.0436 152.104 97.6479C150.788 98.618 149.756 99.9237 149.117 101.429C148.477 102.934 148.254 104.583 148.47 106.204C148.909 109.354 150.972 112.243 153.797 114.221C154.877 115.029 156.124 115.583 157.447 115.844C158.801 116.067 160.308 115.813 161.297 114.972C162.844 113.656 162.684 111.453 162.184 109.613C162.118 109.359 162.078 109.099 162.064 108.837Z" fill="#2F2E41"/>
<path d="M88.98 166.168L38.4199 186.91C37.5516 187.265 36.5779 187.261 35.7124 186.899C34.8469 186.537 34.1603 185.847 33.8033 184.979L18.326 147.252C18.0659 146.616 18.0687 145.903 18.3338 145.269C18.599 144.635 19.1048 144.132 19.7404 143.87L72.0097 122.427C72.6569 122.162 73.3826 122.165 74.0276 122.435C74.6726 122.705 75.1843 123.219 75.4504 123.866L90.9107 161.551C91.2657 162.419 91.2619 163.393 90.8999 164.259C90.538 165.124 89.8475 165.811 88.98 166.168Z" fill="#E6E6E6"/>
<path d="M40.2513 182.334L84.4626 164.196C85.3045 163.851 85.9748 163.185 86.3259 162.346C86.6769 161.506 86.6801 160.561 86.3348 159.72L73.837 129.256C73.666 128.839 73.4145 128.46 73.097 128.14C72.7794 127.82 72.4021 127.566 71.9864 127.392C71.5707 127.219 71.1248 127.128 70.6742 127.127C70.2236 127.125 69.7772 127.212 69.3603 127.383L25.1489 145.521C24.7321 145.692 24.353 145.943 24.0333 146.261C23.7136 146.579 23.4596 146.956 23.2857 147.372C23.1119 147.787 23.0216 148.233 23.0201 148.684C23.0186 149.134 23.1058 149.581 23.2768 149.998L35.7746 180.462C35.9456 180.879 36.1971 181.258 36.5146 181.577C36.8321 181.897 37.2095 182.151 37.6252 182.325C38.0409 182.499 38.4868 182.589 38.9374 182.591C39.388 182.592 39.8344 182.505 40.2513 182.334Z" fill="white"/>
<path d="M73.5927 137.564L72.9427 137.83L72.9871 137.939L73.6371 137.672L73.5927 137.564Z" fill="#E6E6E6"/>
<path d="M71.674 138.477L70.3609 139.016L70.3164 138.908L71.6296 138.369L71.674 138.477ZM69.0477 139.555L67.7346 140.094L67.6902 139.985L69.0033 139.447L69.0477 139.555ZM66.4215 140.632L65.1084 141.171L65.0639 141.063L66.3771 140.524L66.4215 140.632ZM63.7952 141.71L62.4821 142.248L62.4377 142.14L63.7508 141.601L63.7952 141.71ZM61.169 142.787L59.8559 143.326L59.8114 143.217L61.1245 142.679L61.169 142.787ZM58.5427 143.865L57.2296 144.403L57.1852 144.295L58.4983 143.756L58.5427 143.865ZM55.9165 144.942L54.6034 145.481L54.5589 145.372L55.872 144.834L55.9165 144.942ZM53.2902 146.019L51.9771 146.558L51.9326 146.45L53.2458 145.911L53.2902 146.019ZM50.6639 147.097L49.3508 147.635L49.3064 147.527L50.6195 146.988L50.6639 147.097ZM48.0377 148.174L46.7246 148.713L46.6801 148.605L47.9933 148.066L48.0377 148.174ZM45.4114 149.252L44.0983 149.79L44.0539 149.682L45.367 149.143L45.4114 149.252ZM42.7852 150.329L41.4721 150.868L41.4276 150.759L42.7407 150.221L42.7852 150.329ZM40.1589 151.406L38.8458 151.945L38.8014 151.837L40.1145 151.298L40.1589 151.406ZM37.5327 152.484L36.2195 153.023L36.1751 152.914L37.4882 152.376L37.5327 152.484ZM34.9064 153.561L33.5933 154.1L33.5488 153.992L34.862 153.453L34.9064 153.561ZM32.2801 154.639L30.967 155.177L30.9226 155.069L32.2357 154.53L32.2801 154.639Z" fill="#E6E6E6"/>
<path d="M29.6095 155.608L28.9595 155.874L29.0039 155.983L29.6539 155.716L29.6095 155.608Z" fill="#E6E6E6"/>
<path d="M56.3843 156.394L55.7343 156.661L55.7788 156.769L56.4288 156.502L56.3843 156.394Z" fill="#E6E6E6"/>
<path d="M54.4851 157.3L53.1915 157.83L53.147 157.722L54.4407 157.191L54.4851 157.3ZM51.8979 158.361L50.6042 158.892L50.5598 158.784L51.8534 158.253L51.8979 158.361ZM49.3106 159.423L48.017 159.953L47.9725 159.845L49.2662 159.314L49.3106 159.423ZM46.7234 160.484L45.4297 161.015L45.3853 160.906L46.6789 160.376L46.7234 160.484ZM44.1361 161.545L42.8425 162.076L42.798 161.968L44.0917 161.437L44.1361 161.545ZM41.5488 162.607L40.2552 163.138L40.2108 163.029L41.5044 162.499L41.5488 162.607ZM38.9616 163.668L37.668 164.199L37.6235 164.091L38.9172 163.56L38.9616 163.668ZM36.3744 164.73L35.0807 165.26L35.0363 165.152L36.3299 164.621L36.3744 164.73Z" fill="#E6E6E6"/>
<path d="M33.7427 165.683L33.0927 165.949L33.1371 166.058L33.7871 165.791L33.7427 165.683Z" fill="#E6E6E6"/>
<path d="M45.6648 166.361L45.0148 166.627L45.0593 166.736L45.7093 166.469L45.6648 166.361Z" fill="#E6E6E6"/>
<path d="M43.7284 167.282L42.3974 167.828L42.353 167.719L43.6839 167.173L43.7284 167.282ZM41.0664 168.374L39.7355 168.92L39.6911 168.811L41.022 168.265L41.0664 168.374ZM38.4046 169.466L37.0736 170.012L37.0292 169.903L38.3601 169.357L38.4046 169.466Z" fill="#E6E6E6"/>
<path d="M35.6982 170.449L35.0482 170.716L35.0926 170.824L35.7426 170.558L35.6982 170.449Z" fill="#E6E6E6"/>
<path d="M49.002 174.495L48.352 174.762L48.3964 174.87L49.0464 174.603L49.002 174.495Z" fill="#E6E6E6"/>
<path d="M47.0655 175.416L45.7345 175.962L45.6901 175.854L47.021 175.308L47.0655 175.416ZM44.4036 176.508L43.0726 177.054L43.0282 176.946L44.3591 176.4L44.4036 176.508ZM41.7417 177.6L40.4107 178.146L40.3663 178.038L41.6972 177.492L41.7417 177.6Z" fill="#E6E6E6"/>
<path d="M39.0353 178.583L38.3853 178.85L38.4298 178.958L39.0798 178.692L39.0353 178.583Z" fill="#E6E6E6"/>
<path d="M42.1286 177.539L79.5947 162.168C80.5014 161.795 81.2231 161.077 81.6014 160.173C81.9797 159.268 81.9837 158.25 81.6126 157.343L74.0427 138.891L73.9695 138.923L64.7754 160.907L57.9563 158.056C57.8305 158.003 57.6941 157.98 57.5578 157.989C57.4215 157.997 57.2891 158.037 57.1708 158.105C56.9933 158.212 56.8559 158.374 56.78 158.567L51.9615 170.087L46.9757 168.003C46.8681 167.958 46.7527 167.935 46.6361 167.934C46.5195 167.934 46.4039 167.957 46.296 168.001C46.1881 168.045 46.09 168.11 46.0073 168.192C45.9245 168.275 45.8588 168.372 45.8139 168.48C45.7819 168.558 42.7078 176.101 42.1286 177.539Z" fill="#5653FF"/>
<path d="M42.0132 177.712L41.9052 177.667L45.7605 168.448C45.8626 168.204 46.057 168.012 46.3012 167.911C46.5453 167.811 46.8192 167.812 47.0627 167.914L51.95 169.957L56.7411 158.501C56.8432 158.257 57.0376 158.065 57.2817 157.964C57.5259 157.864 57.7998 157.865 58.0433 157.967L64.7639 160.777L74.0053 138.678L74.1134 138.724L64.8268 160.93L57.9981 158.075C57.8917 158.03 57.7776 158.007 57.6623 158.007C57.547 158.006 57.4327 158.029 57.326 158.072C57.2193 158.116 57.1223 158.18 57.0404 158.262C56.9586 158.343 56.8936 158.44 56.8491 158.546L52.0129 170.111L47.0176 168.022C46.8027 167.932 46.561 167.931 46.3456 168.02C46.1302 168.108 45.9586 168.278 45.8685 168.493L42.0132 177.712Z" fill="#3F3D56"/>
<path d="M45.6871 167.235C46.1398 167.235 46.5067 166.868 46.5067 166.415C46.5067 165.962 46.1398 165.595 45.6871 165.595C45.2344 165.595 44.8674 165.962 44.8674 166.415C44.8674 166.868 45.2344 167.235 45.6871 167.235Z" fill="#3F3D56"/>
<path d="M56.4065 157.268C56.8592 157.268 57.2262 156.901 57.2262 156.448C57.2262 155.996 56.8592 155.629 56.4065 155.629C55.9538 155.629 55.5869 155.996 55.5869 156.448C55.5869 156.901 55.9538 157.268 56.4065 157.268Z" fill="#3F3D56"/>
<path d="M73.0979 138.409C73.5506 138.409 73.9176 138.042 73.9176 137.589C73.9176 137.136 73.5506 136.769 73.0979 136.769C72.6452 136.769 72.2782 137.136 72.2782 137.589C72.2782 138.042 72.6452 138.409 73.0979 138.409Z" fill="#3F3D56"/>
<path d="M27.2191 165.485C27.6452 165.273 28.0196 164.97 28.316 164.597C28.6124 164.225 28.8235 163.792 28.9345 163.329C29.0455 162.866 29.0537 162.385 28.9584 161.919C28.8632 161.452 28.6669 161.013 28.3833 160.63L30.8177 136.829H25.5567L23.622 160.07C23.0115 160.589 22.6125 161.314 22.5007 162.107C22.3889 162.901 22.572 163.707 23.0154 164.375C23.4588 165.042 24.1316 165.524 24.9064 165.729C25.6811 165.933 26.504 165.846 27.2191 165.485Z" fill="#FFB8B8"/>
<path d="M32.0496 123.693C36.1604 123.693 39.4929 120.36 39.4929 116.25C39.4929 112.139 36.1604 108.806 32.0496 108.806C27.9388 108.806 24.6064 112.139 24.6064 116.25C24.6064 120.36 27.9388 123.693 32.0496 123.693Z" fill="#FFB8B8"/>
<path d="M33.4509 150.69C33.1529 150.69 32.8632 150.592 32.6263 150.412C32.3893 150.231 32.2181 149.978 32.139 149.69C31.5426 147.524 29.9911 143.86 27.5276 138.802C26.9718 137.658 26.664 136.41 26.6244 135.139C26.5848 133.869 26.8144 132.604 27.298 131.428C27.7817 130.252 28.5085 129.192 29.4308 128.316C30.353 127.441 31.4499 126.771 32.6495 126.349C33.7862 125.948 34.9919 125.779 36.1953 125.851C37.3986 125.924 38.5752 126.238 39.6553 126.773C40.7354 127.308 41.6971 128.055 42.4836 128.969C43.2701 129.882 43.8653 130.945 44.2341 132.092C46.1436 138.079 46.0514 144.491 45.9231 146.97C45.9072 147.269 45.7938 147.554 45.6004 147.782C45.407 148.01 45.1441 148.168 44.8522 148.232L33.7434 150.658C33.6473 150.68 33.5492 150.69 33.4509 150.69Z" fill="#FF6584"/>
<path d="M44.2085 221.37H47.9237L49.6913 207.039L44.2079 207.039L44.2085 221.37Z" fill="#FFB8B8"/>
<path d="M55.0892 224.819L43.4124 224.82L43.4122 220.308L50.5775 220.308C51.17 220.308 51.7567 220.425 52.304 220.651C52.8514 220.878 53.3488 221.21 53.7677 221.629C54.1867 222.048 54.519 222.546 54.7457 223.093C54.9725 223.64 55.0892 224.227 55.0892 224.819Z" fill="#2F2E41"/>
<path d="M7.05687 216.555L10.3128 218.345L18.7661 206.639L13.9612 203.997L7.05687 216.555Z" fill="#FFB8B8"/>
<path d="M14.9297 224.82L4.69731 219.195L6.87079 215.241L13.1497 218.693C14.1982 219.27 14.9748 220.239 15.3086 221.388C15.6424 222.537 15.5061 223.772 14.9297 224.82Z" fill="#2F2E41"/>
<path d="M44.0349 213.416C43.7038 213.416 43.3842 213.295 43.1356 213.076C42.887 212.857 42.7264 212.556 42.6838 212.228L38.0374 176.423C38.0168 176.264 37.9468 176.116 37.8372 176C37.7276 175.884 37.5841 175.805 37.4272 175.776C37.2703 175.746 37.108 175.766 36.9635 175.834C36.819 175.902 36.6997 176.014 36.6226 176.154L17.258 211.287C17.0982 211.574 16.8408 211.794 16.5325 211.907C16.2243 212.02 15.8857 212.019 15.5783 211.903L11.3574 210.295C11.1876 210.231 11.0325 210.133 10.9011 210.007C10.7697 209.882 10.6647 209.731 10.5922 209.565C10.5198 209.398 10.4814 209.219 10.4792 209.037C10.4771 208.855 10.5113 208.675 10.5798 208.507L23.9941 175.554C24.0281 175.47 24.0511 175.382 24.0626 175.293C25.8795 161.23 30.5023 154.079 31.8758 152.222C31.9761 152.086 32.0421 151.927 32.0683 151.76C32.0944 151.592 32.08 151.421 32.0261 151.261L31.8373 150.694C31.7618 150.469 31.7464 150.229 31.7924 149.996C31.8384 149.764 31.9443 149.547 32.0997 149.368C37.0489 143.731 45.6752 146.807 45.7618 146.838L45.805 146.854L45.8321 146.891C55.5047 160.157 51.9284 203.242 51.1133 211.744C51.0829 212.064 50.9404 212.362 50.7111 212.587C50.4819 212.811 50.1805 212.948 49.8605 212.972L44.1408 213.412C44.1053 213.415 44.07 213.416 44.0349 213.416Z" fill="#2F2E41"/>
<path d="M60.9862 124.896C60.949 125.059 60.9247 125.225 60.9137 125.393L47.8953 132.903L44.7311 131.081L41.3577 135.497L46.6461 139.267C47.0733 139.571 47.5878 139.729 48.1123 139.716C48.6368 139.703 49.1429 139.521 49.5548 139.196L62.979 128.605C63.5848 128.83 64.2445 128.864 64.8704 128.704C65.4963 128.544 66.0588 128.198 66.4829 127.711C66.907 127.223 67.1727 126.618 67.2446 125.976C67.3166 125.334 67.1914 124.686 66.8857 124.117C66.58 123.548 66.1083 123.085 65.5333 122.791C64.9583 122.496 64.3073 122.384 63.6669 122.468C63.0264 122.553 62.4269 122.83 61.948 123.264C61.4692 123.698 61.1337 124.267 60.9862 124.896Z" fill="#FFB8B8"/>
<path d="M47.4601 133.259L43.2526 138.712C43.1329 138.867 42.9812 138.994 42.8077 139.086C42.6343 139.177 42.4432 139.23 42.2475 139.24C42.0519 139.251 41.8562 139.219 41.6738 139.148C41.4914 139.076 41.3267 138.966 41.1907 138.825L36.4276 133.878C35.6372 133.261 35.1238 132.356 34.9999 131.361C34.8759 130.366 35.1516 129.363 35.7664 128.571C36.3812 127.779 37.2851 127.263 38.2797 127.136C39.2743 127.009 40.2786 127.282 41.0723 127.895L47.0463 131.235C47.2174 131.331 47.3657 131.463 47.4814 131.621C47.597 131.779 47.6772 131.96 47.7165 132.152C47.7557 132.344 47.7532 132.542 47.7089 132.733C47.6647 132.924 47.5798 133.103 47.4601 133.259Z" fill="#FF6584"/>
<path d="M31.1525 142.733L24.3745 141.509C24.1817 141.474 23.9986 141.398 23.8377 141.286C23.6769 141.174 23.5421 141.029 23.4425 140.86C23.3428 140.691 23.2808 140.503 23.2605 140.308C23.2401 140.113 23.2621 139.916 23.3248 139.731L25.5221 133.225C25.7058 132.239 26.2729 131.366 27.0991 130.798C27.9252 130.23 28.943 130.013 29.9292 130.194C30.9155 130.375 31.7896 130.939 32.3601 131.764C32.9305 132.589 33.1507 133.606 32.9722 134.593L32.7579 141.434C32.7517 141.63 32.7033 141.822 32.6161 141.997C32.5289 142.173 32.4049 142.328 32.2526 142.451C32.1002 142.574 31.9231 142.663 31.7333 142.712C31.5434 142.76 31.3454 142.768 31.1525 142.733H31.1525Z" fill="#FF6584"/>
<path d="M33.2277 114.538C35.1408 115.847 37.6527 117.193 39.6066 115.798C40.2178 115.333 40.6618 114.682 40.8722 113.943C41.0825 113.204 41.0479 112.417 40.7735 111.7C39.8379 109.024 37.2674 107.846 34.8093 106.943C31.6138 105.77 28.1344 104.836 24.8356 105.677C21.5368 106.517 18.6213 109.711 19.2168 113.063C19.6957 115.758 22.2383 118.001 21.8773 120.715C21.5141 123.446 18.4426 124.883 15.731 125.372C13.0194 125.86 9.98502 126.017 8.03629 127.964C5.55033 130.449 6.17112 134.89 8.5103 137.513C10.8495 140.137 14.3794 141.326 17.8 142.134C22.332 143.205 27.2337 143.768 31.5379 141.99C35.8422 140.213 39.1917 135.428 37.9448 130.941C37.4181 129.046 36.1774 127.444 34.9784 125.885C33.7793 124.326 32.5651 122.695 32.1078 120.782C31.7266 119.188 32.0087 117.337 33.066 116.141C33.2582 115.931 33.3793 115.667 33.4116 115.384C33.444 115.102 33.386 114.816 33.2461 114.569L33.2277 114.538Z" fill="#2F2E41"/>
</svg>
