<svg width="352" height="215" viewBox="0 0 352 215" fill="none" xmlns="http://www.w3.org/2000/svg">
<g clip-path="url(#clip0)">
<path d="M245.34 102.715C245.34 102.715 231.18 99.8476 232.973 105.942C234.765 112.036 246.595 108.093 246.595 108.093L245.34 102.715Z" fill="#FFB8B8"/>
<path d="M275.889 70.526C276.065 70.3657 276.281 70.2557 276.515 70.2076C276.748 70.1595 276.99 70.1751 277.215 70.2528C277.441 70.3304 277.641 70.4672 277.795 70.6488C277.949 70.8305 278.052 71.0503 278.092 71.2852L278.576 74.0962C278.576 74.0962 280.764 85.3399 278.891 92.482C277.017 99.6242 275.688 109.032 270.625 110.034C266.293 110.892 249.822 109.534 245.159 109.124C244.823 109.095 244.511 108.938 244.286 108.687C244.061 108.436 243.94 108.109 243.948 107.772L244.035 103.669C244.042 103.346 244.167 103.036 244.385 102.798C244.604 102.56 244.902 102.41 245.223 102.376L264.082 100.364C264.376 100.334 264.652 100.205 264.865 99.9992C265.078 99.7934 265.216 99.5223 265.257 99.2291C265.706 96.0207 267.156 86.0737 268.597 80.844C269.761 76.6181 273.585 72.6281 275.889 70.526Z" fill="#00BEB3"/>
<path d="M263.635 190.442V199.045L268.474 200.121L271.701 198.508L271.342 191.697L263.635 190.442Z" fill="#FFB8B8"/>
<path d="M292.224 190.442V199.045L297.064 200.121L300.29 198.508L299.931 191.697L292.224 190.442Z" fill="#FFB8B8"/>
<path d="M273.314 120.538C273.314 120.538 266.861 133.623 267.041 143.839C267.148 150.006 266.849 156.174 266.144 162.301L262.918 192.951L273.314 193.489L278.153 160.509L287.474 135.057L291.059 165.348L291.955 195.819H300.917C300.917 195.819 305.04 166.961 302.71 160.509C302.71 160.509 308.087 124.302 303.785 122.51C299.483 120.717 273.314 120.538 273.314 120.538Z" fill="#232333"/>
<path d="M266.861 196.715C266.861 196.715 265.069 190.083 262.56 193.489C260.05 196.895 252.881 202.63 252.881 202.63C252.881 202.63 242.126 208.366 251.984 209.8C261.843 211.234 262.918 208.007 262.918 208.007C262.918 208.007 264.531 207.111 265.965 207.649C267.399 208.187 273.672 208.007 274.031 205.857C274.389 203.706 272.059 191.876 271.342 194.027C270.625 196.178 266.861 196.715 266.861 196.715Z" fill="#2F2E41"/>
<path d="M299.842 196.536C299.842 196.536 299.842 194.564 296.436 194.385C293.031 194.206 292.493 196.536 292.493 196.536C292.493 196.536 291.597 197.432 291.417 200.121C291.238 202.809 291.417 209.8 291.417 209.8C291.417 209.8 289.804 215.177 297.153 214.102C304.502 213.026 301.813 207.47 301.813 207.47L299.842 196.536Z" fill="#2F2E41"/>
<path d="M286.757 53.6812L285.861 63.7186L284.248 67.4827L288.549 73.5769L299.125 63.7186C299.125 63.7186 297.153 58.3414 298.408 55.2943L286.757 53.6812Z" fill="#FFB8B8"/>
<path d="M310.775 70.8882L310.693 71.7719L307.549 105.302C307.549 105.302 307.425 106.862 307.196 108.941C306.809 112.458 306.12 117.46 305.219 118.925C303.785 121.255 304.86 123.227 304.86 123.227C296.615 128.066 272.239 121.076 272.239 121.076L277.795 98.8498C277.795 98.8498 272.776 75.7277 273.314 73.5768C273.852 71.426 285.144 63.7186 285.144 63.7186L285.477 64.6148C290.29 71.0675 295.181 65.511 296.615 64.2563L299.483 61.7469L310.775 70.8882Z" fill="#00BEB3"/>
<path d="M273.915 132.388C256.827 134.707 240.525 135.555 225.44 134.128C220.083 133.585 214.77 132.672 209.539 131.397C199.947 129.127 188.173 129.127 175.238 130.336C167.373 131.036 159.621 132.68 152.149 135.233C142.124 138.703 131.142 138.402 119.499 135.497C114.721 134.253 110.116 132.42 105.79 130.039C97.2785 125.465 87.2046 127.121 76.2253 132.388V91.4869C86.4756 87.0228 96.4613 86.3021 106.13 90.0654C109.654 91.473 113.299 92.5601 117.019 93.3136C130.456 95.9399 144.326 95.3135 157.471 91.4869C175.248 85.4637 193.842 87.3361 212.673 91.4869C233.653 95.9181 254.1 96.1794 273.915 91.4869V132.388Z" fill="#DDDDDD"/>
<path d="M161.068 15.4363L170.855 9.78625L165.205 4.12504e-05L155.418 5.65011L161.068 15.4363Z" fill="#5653FF"/>
<path d="M124.815 64.7039L134.601 59.0538L128.951 49.2676L119.165 54.9177L124.815 64.7039Z" fill="#00BEB3"/>
<path d="M224.28 51.6899L234.066 46.0398L228.416 36.2536L218.63 41.9036L224.28 51.6899Z" fill="#FF6584"/>
<path d="M55.4183 131.256L61.3357 158.651L43.3645 198.976L53.8842 203.579L74.0467 157.336L61.1575 116.725L53.487 118.697L55.4183 131.256Z" fill="#232333"/>
<path d="M50.1585 123.723C50.1585 123.723 52.3501 127.668 57.1716 130.956C61.9931 134.243 72.0744 155.94 72.0744 155.94L61.1165 199.772L76.2385 203.936L84.5665 152.433L67.4721 113.861L50.1585 123.723Z" fill="#232333"/>
<path d="M44.6795 197.442C44.6795 197.442 42.4879 199.853 43.3645 201.606C44.2412 203.359 44.6795 207.962 44.6795 207.962H46.6519V202.702L53.0076 208.619C53.0076 208.619 67.6913 209.934 67.4721 208.619C67.253 207.304 58.7057 204.236 58.7057 204.236L54.5417 197.88L44.6795 197.442Z" fill="#2F2E41"/>
<path d="M63.9655 198.019C63.9655 198.019 61.7739 200.43 62.6506 202.183C63.5272 203.936 63.9655 208.538 63.9655 208.538H65.938V203.279L72.2936 209.196C72.2936 209.196 86.9773 210.511 86.7581 209.196C86.539 207.881 77.9918 204.813 77.9918 204.813L73.8277 198.457L63.9655 198.019Z" fill="#2F2E41"/>
<path d="M58.7057 63.6739C63.3052 63.6739 67.0338 59.9453 67.0338 55.3459C67.0338 50.7464 63.3052 47.0178 58.7057 47.0178C54.1062 47.0178 50.3776 50.7464 50.3776 55.3459C50.3776 59.9453 54.1062 63.6739 58.7057 63.6739Z" fill="#A0616A"/>
<path d="M51.9118 55.7842C51.9118 55.7842 51.2543 64.1122 47.0903 67.1805C42.9262 70.2487 42.9262 72.8786 42.9262 72.8786L59.8015 80.5492L55.8566 72.2211C55.8566 72.2211 54.7608 71.7828 56.5141 69.5912C58.2674 67.3996 59.8015 62.1398 59.8015 62.1398L51.9118 55.7842Z" fill="#A0616A"/>
<path d="M69.1158 114.848C64.556 118.828 59.2732 121.895 53.5551 123.88L49.5775 125.261C49.5775 125.261 41.1664 115.054 45.4137 107.01C46.2862 105.31 47.534 103.831 49.0627 102.684L48.975 102.301L46.8426 92.9974L46.6519 92.1646L40.2963 90.6305C40.2963 90.6305 40.2766 90.6371 40.2393 90.6458C39.7638 90.7708 36.5399 91.3625 38.9814 83.8365C40.6055 78.8287 41.7831 74.0607 42.4463 71.1462C42.5381 70.7392 42.7113 70.355 42.9555 70.0166C43.1997 69.6783 43.5098 69.3929 43.8672 69.1775C44.2245 68.9622 44.6218 68.8213 45.035 68.7635C45.4482 68.7057 45.8688 68.732 46.2716 68.841C48.3067 69.399 50.8349 70.4588 52.3501 72.4402C55.1992 76.166 55.7747 72.2755 55.7747 72.2755C55.7747 72.2755 63.7464 81.2066 63.3081 85.1515C63.2327 86.2098 63.2651 87.2731 63.4045 88.3249V88.3293C63.4571 88.7983 63.5206 89.287 63.593 89.7867C64.1365 93.4774 65.1885 97.7663 65.5742 99.2741C65.6027 99.3815 65.6268 99.4758 65.6465 99.5547C65.6925 99.7366 65.7188 99.8352 65.7188 99.8352L69.1158 114.848Z" fill="#00BEB3"/>
<path opacity="0.2" d="M57.8291 103.78L56.0758 109.697C56.0758 109.697 49.352 107.984 45.4137 107.01C46.2862 105.31 47.534 103.831 49.0627 102.684L48.975 102.301L46.8426 92.9974L46.6519 92.1646L40.2963 90.6305C40.2963 90.6305 40.2766 90.637 40.2393 90.6458L39.858 87.7814C39.858 87.7814 50.816 88.4389 51.4734 91.0688C52.1309 93.6987 50.816 96.3286 50.1585 96.7669C49.501 97.2053 50.1585 96.7669 51.4734 97.4244C52.7884 98.0819 51.0351 97.4244 50.1585 98.7394C49.2818 100.054 50.3776 98.9585 50.5968 99.616C50.816 100.273 50.5968 99.3969 50.3776 100.493C50.1585 101.588 51.2543 100.712 51.4734 100.712C51.6926 100.712 57.8291 103.78 57.8291 103.78Z" fill="black"/>
<path d="M55.8566 102.684L70.102 106.41C70.102 106.41 77.7726 98.5203 81.9366 100.931C86.1006 103.342 74.4852 108.821 74.4852 108.821L70.3212 109.697L55.1992 107.944L55.8566 102.684Z" fill="#A0616A"/>
<path d="M39.858 86.9048L40.7346 93.4796C40.7346 93.4796 40.0771 93.4796 40.7346 95.0137C41.3921 96.5478 40.7346 99.616 40.7346 99.616C40.7346 99.616 39.4197 99.8352 40.5155 100.493C41.6113 101.15 42.7071 102.903 42.2687 103.561C41.8304 104.218 40.9538 105.095 42.9262 105.533C44.8987 105.972 56.0758 108.821 56.0758 108.821L57.8291 102.903C57.8291 102.903 51.6926 99.8352 51.4734 99.8352C51.2543 99.8352 50.1585 100.712 50.3776 99.616C50.5968 98.5202 50.816 99.3969 50.5968 98.7394C50.3776 98.0819 49.2818 99.1777 50.1585 97.8628C51.0351 96.5478 52.7884 97.2053 51.4734 96.5478C50.1585 95.8903 49.501 96.3286 50.1585 95.8903C50.816 95.452 52.1309 92.8221 51.4734 90.1922C50.816 87.5622 39.858 86.9048 39.858 86.9048Z" fill="#00BEB3"/>
<path d="M56.7851 70.0633L57.4455 69.0132C57.7551 68.521 57.8564 67.9261 57.7273 67.3592C57.5981 66.7923 57.2491 66.2999 56.7569 65.9904L51.7251 62.8258C51.233 62.5162 50.638 62.4149 50.0711 62.544C49.5042 62.6732 49.0119 63.0222 48.7023 63.5144L48.0419 64.5644C47.6699 64.5625 47.3036 64.6555 46.9776 64.8345C46.6515 65.0135 46.3765 65.2726 46.1784 65.5874L44.5534 68.1712C44.2439 68.6633 44.1425 69.2583 44.2717 69.8252C44.4008 70.3921 44.7498 70.8844 45.242 71.194L52.0224 75.4584C52.5146 75.7679 53.1096 75.8693 53.6765 75.7401C54.2433 75.611 54.7357 75.2619 55.0452 74.7698L56.6702 72.186C56.8682 71.8711 56.9826 71.511 57.0027 71.1396C57.0228 70.7681 56.9479 70.3977 56.7851 70.0633Z" fill="#00BEB3"/>
<path d="M58.4155 55.2026C58.8814 54.5222 58.6772 53.5767 59.0107 52.8224C59.5343 51.638 61.0783 51.395 62.3709 51.3171C63.2282 51.2281 64.0933 51.2514 64.9445 51.3863C65.3205 51.4582 65.6746 51.6164 65.9789 51.8485C66.2832 52.0806 66.5295 52.3802 66.6982 52.7238C66.8798 53.1111 66.8607 51.9107 66.7757 50.3683C66.69 48.7943 66.1067 47.2881 65.1101 46.0668C64.1134 44.8456 62.7548 43.9722 61.2299 43.5726C61.2118 43.5679 61.1939 43.5632 61.1761 43.5587C59.6143 43.1583 58.0013 42.8525 56.3959 43.0018C54.7905 43.151 53.1781 43.8034 52.1484 45.0441C51.6778 45.6112 51.3384 46.2851 50.8158 46.8046C49.8976 47.7174 48.5618 48.0253 47.3317 48.4294C45.9226 48.8464 44.618 49.5575 43.5039 50.5159C42.3861 51.4888 41.6968 52.8631 41.5855 54.3409C41.5183 56.0476 42.5617 57.8359 44.3036 58.2149C44.6067 58.2753 44.8912 58.4064 45.1341 58.5974C46.7737 59.9335 44.8347 61.2437 44.8126 62.7026C44.7941 63.92 46.1298 64.746 47.3443 64.8322C48.4805 64.8802 49.598 64.5315 50.5053 63.8459C51.4126 63.1603 52.0532 62.1805 52.3172 61.0743C52.5247 60.0799 52.408 59.0506 52.3132 58.0392C52.2047 56.8815 54.7566 54.2235 53.0661 56.1761C52.7364 56.547 52.509 56.9974 52.4062 57.4829C52.0943 59.068 53.5298 59.6385 54.4219 60.5425C54.9113 61.0535 55.2477 61.6915 55.393 62.384C55.5382 63.0765 55.4865 63.7959 55.2437 64.4605C56.0134 63.7964 56.5272 62.8844 56.6964 61.8819C56.8655 60.8795 56.6794 59.8494 56.1702 58.9695C55.8869 58.5111 55.5173 58.1094 55.2494 57.6418C54.8315 56.9122 54.7493 55.3453 55.9669 55.4178C56.836 55.4695 57.722 56.2155 58.4155 55.2026Z" fill="#2F2E41"/>
<path d="M292.851 58.5206C297.9 58.5206 301.993 54.4279 301.993 49.3793C301.993 44.3307 297.9 40.238 292.851 40.238C287.803 40.238 283.71 44.3307 283.71 49.3793C283.71 54.4279 287.803 58.5206 292.851 58.5206Z" fill="#FFB8B8"/>
<path opacity="0.2" d="M310.334 72.1304L307.191 105.661C307.191 105.661 307.067 107.22 306.837 109.3C300.164 110.895 281.738 112.114 281.738 112.114L280.842 105.661L301.276 100.104C301.276 100.104 298.766 86.1237 301.634 80.388C302.336 78.9927 302.965 77.5612 303.516 76.0996C304.018 74.7517 304.972 73.6196 306.216 72.896C307.459 72.1723 308.914 71.9017 310.334 72.1304V72.1304Z" fill="black"/>
<path d="M282.814 104.765C282.814 104.765 268.654 101.897 270.446 107.991C272.239 114.085 284.068 110.142 284.068 110.142L282.814 104.765Z" fill="#FFB8B8"/>
<path d="M305.219 69.9921L310.775 70.8883C310.775 70.8883 314.719 81.6427 314.002 88.9916C313.285 96.3405 313.464 105.84 308.624 107.633C303.785 109.425 282.097 110.859 282.097 110.859L281.201 104.406L301.634 98.8498C301.634 98.8498 299.125 84.8691 301.993 79.1333C304.86 73.3976 305.219 69.9921 305.219 69.9921Z" fill="#00BEB3"/>
<path d="M285.057 40.0949L283.3 39.3915C283.3 39.3915 286.974 35.347 292.085 35.6987L290.648 34.1161C290.648 34.1161 294.162 32.7093 297.356 36.4021C299.035 38.3433 300.978 40.6252 302.19 43.1956H304.071L303.286 44.9248L306.035 46.6539L303.213 46.3433C303.381 47.2902 303.407 48.2569 303.29 49.2115C303.169 50.1663 302.682 51.0368 301.931 51.6392C301.931 51.6392 299.752 47.1289 299.752 46.4255V48.1839C299.752 48.1839 297.995 46.6013 297.995 45.5462L297.037 46.7772H290.648L291.606 45.1945L287.932 45.7221L289.37 43.7877L283.682 51.7753C283.682 51.7753 280.425 42.7327 285.057 40.0949Z" fill="#2F2E41"/>
<path d="M175.07 146.022C193.553 146.022 208.535 131.039 208.535 112.557C208.535 94.0751 193.553 79.0924 175.07 79.0924C156.588 79.0924 141.606 94.0751 141.606 112.557C141.606 131.039 156.588 146.022 175.07 146.022Z" fill="#5653FF"/>
<path d="M191.493 119.208C191.493 121.262 183.953 126.413 175.225 126.413C166.498 126.413 159.887 121.262 159.887 119.208C159.887 117.155 166.498 119.906 175.225 119.906C183.953 119.906 191.493 117.155 191.493 119.208Z" fill="#D0CDE1"/>
<path d="M187.155 106.67C189.208 106.67 190.873 105.005 190.873 102.952C190.873 100.898 189.208 99.2333 187.155 99.2333C185.101 99.2333 183.437 100.898 183.437 102.952C183.437 105.005 185.101 106.67 187.155 106.67Z" fill="#3F3D56"/>
<path d="M162.986 106.67C165.039 106.67 166.704 105.005 166.704 102.952C166.704 100.898 165.039 99.2333 162.986 99.2333C160.932 99.2333 159.268 100.898 159.268 102.952C159.268 105.005 160.932 106.67 162.986 106.67Z" fill="#3F3D56"/>
<path d="M165.155 102.952C166.182 102.952 167.014 102.119 167.014 101.092C167.014 100.066 166.182 99.2333 165.155 99.2333C164.128 99.2333 163.296 100.066 163.296 101.092C163.296 102.119 164.128 102.952 165.155 102.952Z" fill="#D0CDE1"/>
<path d="M184.056 102.952C185.083 102.952 185.915 102.119 185.915 101.092C185.915 100.066 185.083 99.2333 184.056 99.2333C183.03 99.2333 182.197 100.066 182.197 101.092C182.197 102.119 183.03 102.952 184.056 102.952Z" fill="#D0CDE1"/>
<path d="M175.69 81.2614C183.049 81.2614 189.014 75.2961 189.014 67.9375C189.014 60.5789 183.049 54.6135 175.69 54.6135C168.332 54.6135 162.366 60.5789 162.366 67.9375C162.366 75.2961 168.332 81.2614 175.69 81.2614Z" fill="#5653FF"/>
<path d="M171.411 69.3167C176.117 72.118 176.286 80.5126 176.286 80.5126C176.286 80.5126 168.825 84.3655 164.12 81.5642C159.415 78.7629 159.246 70.3683 159.246 70.3683C159.246 70.3683 166.706 66.5155 171.411 69.3167Z" fill="#3F3D56"/>
<path d="M188.059 80.0451C183.806 83.4954 175.868 80.7581 175.868 80.7581C175.868 80.7581 174.826 72.4268 179.078 68.9765C183.331 65.5262 191.268 68.2635 191.268 68.2635C191.268 68.2635 192.311 76.5948 188.059 80.0451Z" fill="#3F3D56"/>
</g>
<defs>
<clipPath id="clip0">
<rect width="352" height="214.244" fill="white"/>
</clipPath>
</defs>
</svg>
